<svg width="436" height="75" fill="none" xmlns="http://www.w3.org/2000/svg"><path fill-rule="evenodd" clip-rule="evenodd" d="M62.326 51.326l1.462-2.603 5.218 2.918-1.463 2.603A34.205 34.205 0 0154.95 67.059a34.39 34.39 0 01-16.865 4.708H3.24V37.02c.133-9.268 3.955-17.657 10.07-23.757a34.283 34.283 0 0124.292-10.03A34.308 34.308 0 0155.048 7.99 34.206 34.206 0 0167.66 20.92l1.445 2.62-5.25 2.868-1.446-2.62a28.437 28.437 0 00-10.401-10.676A28.394 28.394 0 0037.602 9.2a28.245 28.245 0 00-20.039 8.289c-5.134 5.123-8.308 12.185-8.308 19.993a28.117 28.117 0 008.308 19.994c5.134 5.122 12.213 8.289 20.039 8.289 5.15 0 10.086-1.376 14.34-3.88a28.084 28.084 0 0010.384-10.56zm-27.283 7.129V47.414h5.998v11.024h-5.998v.017zm25.106-30.172l-11.98 6.846-2.974-5.189 11.98-6.863 2.974 5.205zm-42.47-6.284l13.36 7.875-3.041 5.14-13.36-7.875 3.041-5.14z" fill="#B1B1B1"/><path d="M14.556 47.646l22.099-12.964 1.512-.879 1.495.879 20.52 11.92-2.99 5.172-19.025-11.041-20.604 12.085-3.007-5.172zm20.503-20.093V12.964h5.999v14.589H35.06z" fill="#B1B1B1"/><path d="M109.133 36.439c-.482.53-.98.912-1.529 1.16-.548.25-1.213.365-1.977.365-1.03 0-1.828-.215-2.409-.63-.582-.414-.964-1.16-1.163-2.221l-.715-4.029c-.133-.746-.332-1.326-.565-1.74a2.192 2.192 0 00-1.063-.946c-.466-.215-1.114-.314-1.944-.314h-.366v6.73c0 .663.05 1.144.15 1.443.1.298.282.497.548.613.266.1.698.182 1.296.216v.53c-.897-.05-2.293-.083-4.17-.083-1.712 0-3.041.033-3.988.083v-.53c.581-.034 1.013-.1 1.28-.216a.89.89 0 00.547-.613c.1-.299.15-.78.15-1.443v-6.73h-.366c-.83 0-1.478.099-1.944.314a2.367 2.367 0 00-1.063.945c-.233.415-.432.995-.565 1.741l-.715 4.029c-.199 1.06-.581 1.79-1.163 2.221-.581.415-1.379.63-2.409.63-.78 0-1.429-.116-1.977-.365a4.514 4.514 0 01-1.529-1.16l.366-.315c.182.199.332.331.482.431.15.1.332.15.548.166a.876.876 0 00.78-.415c.184-.265.35-.762.483-1.492l.764-3.53c.282-1.228.897-2.123 1.844-2.653.947-.53 2.277-.863 3.988-.962l-4.785-5.72c-1.163-1.359-2.443-2.204-3.855-2.536v-.497a32.8 32.8 0 002.509.083c1.296 0 2.592-.034 3.888-.083v.497c-.615.033-1.097.166-1.429.415-.332.232-.498.58-.498 1.01 0 .664.398 1.493 1.212 2.454l1.562 1.874c.748.862 1.396 1.475 1.961 1.857.565.38 1.196.58 1.91.596v-5.901c0-.664-.049-1.144-.149-1.46a.965.965 0 00-.548-.613c-.266-.1-.698-.182-1.296-.215v-.53c.947.049 2.276.082 3.988.082 1.877 0 3.273-.033 4.17-.083v.53c-.581.034-1.013.1-1.279.216a.889.889 0 00-.548.614c-.1.298-.15.779-.15 1.459v5.901a3.517 3.517 0 001.91-.596c.566-.382 1.214-.995 1.962-1.857l1.562-1.874c.814-.961 1.212-1.79 1.212-2.453 0-.415-.166-.763-.515-.995-.349-.248-.814-.381-1.412-.414v-.498c1.263.05 2.559.083 3.888.083 1.014 0 1.861-.033 2.509-.083v.498c-1.396.315-2.675 1.16-3.855 2.536l-4.818 5.72c1.728.1 3.074.43 4.021.961.947.53 1.562 1.426 1.844 2.653l.764 3.53c.133.714.299 1.211.482 1.493a.914.914 0 00.781.414c.2-.016.366-.066.515-.165.15-.083.316-.233.515-.448l.366.315zm9.753-17.888c1.064 0 1.961.15 2.692.448a8.724 8.724 0 012.16 1.26c.2.165.366.232.499.232.349 0 .581-.53.681-1.575h.615c-.067 1.193-.1 3.315-.1 6.382h-.615c-.166-1.293-.365-2.287-.631-2.984-.266-.68-.715-1.276-1.346-1.79a4.591 4.591 0 00-1.529-.962 5.243 5.243 0 00-1.827-.331c-1.778 0-3.108.862-3.972 2.602-.864 1.725-1.296 3.896-1.296 6.483 0 2.57.449 4.708 1.346 6.432.898 1.724 2.243 2.586 4.021 2.586.598 0 1.197-.116 1.778-.331a4.016 4.016 0 001.496-.962c.648-.497 1.113-1.11 1.362-1.84.249-.746.449-1.824.598-3.25h.615c0 3.184.033 5.405.1 6.648h-.582c-.05-.563-.133-.961-.232-1.193-.1-.232-.233-.348-.416-.348-.133 0-.332.066-.548.215-.798.564-1.545.995-2.277 1.277-.714.282-1.595.43-2.608.43-1.861 0-3.506-.38-4.902-1.127a7.961 7.961 0 01-3.257-3.282c-.764-1.426-1.163-3.15-1.163-5.123 0-1.94.399-3.647 1.197-5.139.797-1.492 1.894-2.652 3.323-3.481 1.396-.863 3.007-1.277 4.818-1.277zm30.673 5.04c1.546 0 2.759.563 3.639 1.69.864 1.128 1.313 2.786 1.313 4.99 0 2.454-.532 4.36-1.579 5.704-1.047 1.343-2.492 2.006-4.32 2.006-.964 0-1.761-.2-2.359-.614v2.404c0 .78.183 1.31.548 1.608.366.299.897.448 1.628.448v.547l-.631-.033c-1.795-.05-2.941-.083-3.439-.083-.499 0-1.645.033-3.44.083l-.631.033v-.547c.747 0 1.279-.15 1.645-.448.349-.298.531-.829.531-1.608v-2.636c-.648.564-1.562.846-2.725.846-1.678 0-3.007-.597-4.021-1.79-.997-1.194-1.512-2.985-1.512-5.356 0-2.37.499-4.177 1.512-5.387.997-1.227 2.376-1.84 4.121-1.84 1.113 0 1.977.281 2.609.861v-2.685c0-.813-.117-1.393-.366-1.774-.249-.365-.681-.547-1.329-.547v-.564c.548.05 1.13.083 1.778.083 1.479 0 2.725-.116 3.722-.365v6.085c.382-.349.88-.63 1.479-.813a5.776 5.776 0 011.827-.298zm-8.673 13.395c.299 0 .598-.05.864-.133.282-.083.515-.199.681-.348V25.033a2.211 2.211 0 00-.781-.514 2.365 2.365 0 00-.881-.166c-1.728 0-2.592 2.139-2.592 6.416 0 2.238.233 3.83.682 4.791.448.945 1.13 1.426 2.027 1.426zm6.713.265c1.046 0 1.778-.563 2.226-1.674.449-1.11.681-2.769.681-4.974s-.199-3.746-.614-4.675c-.416-.912-1.047-1.376-1.911-1.376-.316 0-.632.05-.931.166-.315.1-.565.265-.781.48V36.82c.366.282.815.431 1.33.431zm12.046.53c-1.13 0-1.977-.281-2.526-.861-.548-.58-.83-1.343-.83-2.288 0-.796.199-1.442.614-1.973a4.244 4.244 0 011.513-1.194 23.02 23.02 0 012.259-.895c.964-.331 1.678-.63 2.127-.912.449-.265.681-.646.681-1.127v-2.056c0-.746-.166-1.31-.515-1.724-.349-.414-.88-.613-1.595-.613-.847 0-1.495.215-1.927.63.498.182.88.447 1.146.796a2 2 0 01.416 1.243c0 .597-.2 1.078-.615 1.426-.399.348-.897.53-1.479.53-.615 0-1.097-.199-1.429-.58-.332-.381-.498-.862-.498-1.442 0-.498.116-.912.349-1.26.232-.348.598-.663 1.096-.962.482-.282 1.064-.497 1.761-.663.698-.166 1.463-.232 2.293-.232.864 0 1.612.083 2.244.265.631.183 1.163.481 1.578.895.382.382.648.863.781 1.426.133.564.199 1.326.199 2.288v7.178c0 .415.034.713.117.896.083.182.232.265.465.265.266 0 .581-.15.947-.448l.266.448c-.798.646-1.761.978-2.908.978-.964 0-1.645-.199-2.027-.58-.382-.382-.598-.912-.615-1.559-.88 1.393-2.176 2.106-3.888 2.106zm2.044-1.69c.681 0 1.279-.365 1.794-1.078V29.61c-.216.348-.664.746-1.346 1.16-.681.448-1.212.879-1.561 1.327-.349.447-.532 1.077-.532 1.906 0 .713.149 1.26.449 1.591.299.332.697.498 1.196.498zm15.037-12.5c.648 0 1.263.066 1.845.215.581.133 1.063.332 1.445.58.465.282.814.63 1.064 1.062.249.43.382.895.382 1.409 0 .613-.2 1.127-.582 1.508-.382.398-.897.597-1.512.597s-1.113-.182-1.479-.53c-.365-.348-.548-.83-.548-1.426 0-.53.166-.978.498-1.376a2.613 2.613 0 011.247-.796c-.133-.199-.349-.348-.648-.464a2.447 2.447 0 00-.931-.166c-1.063 0-1.877.58-2.476 1.724-.598 1.144-.88 2.653-.88 4.526 0 1.874.332 3.233.997 4.062.664.829 1.512 1.243 2.509 1.243.598 0 1.196-.166 1.811-.48.615-.316 1.163-.863 1.645-1.658l.448.165a6.504 6.504 0 01-1.844 2.935c-.881.812-2.01 1.227-3.406 1.227-1.811 0-3.29-.597-4.437-1.79-1.146-1.194-1.711-2.968-1.711-5.323 0-1.541.282-2.867.847-3.962.565-1.094 1.346-1.906 2.327-2.47.997-.53 2.11-.812 3.389-.812zm22.282.945c-.615 0-1.047.132-1.313.414-.249.265-.382.763-.382 1.492v8.704c0 .713.133 1.21.382 1.492.25.265.698.414 1.313.414v.547c-1.761-.066-2.924-.099-3.489-.099-.532 0-1.678.033-3.44.1v-.548c.532 0 .898-.132 1.114-.414.216-.265.315-.763.315-1.492v-7.99l-5.018 8.487c.033.53.166.895.382 1.094.216.2.565.299 1.014.299v.547c-1.628-.066-2.708-.1-3.273-.1-.532 0-1.745.034-3.656.1v-.547c.632 0 1.08-.133 1.329-.415.25-.265.366-.762.366-1.492v-8.703c0-.713-.116-1.21-.366-1.492-.249-.266-.681-.415-1.329-.415v-.547c1.828.066 2.991.1 3.489.1.599 0 1.745-.034 3.44-.1v.547c-.532 0-.897.133-1.113.415-.216.265-.316.762-.316 1.492v8.223l5.051-8.522c-.016-.613-.133-1.044-.349-1.26-.216-.232-.581-.348-1.063-.348v-.547c1.695.066 2.791.1 3.273.1.598 0 1.811-.034 3.656-.1v.564h-.017zm15.968 0c-.582 0-.98.132-1.196.414-.216.265-.333.763-.333 1.492v8.704c0 .713.117 1.21.349 1.492.233.265.632.414 1.197.414v.547c-1.695-.066-2.825-.099-3.39-.099-.465 0-1.562.033-3.307.083a4.863 4.863 0 01-.548.033v-.547c.665 0 1.147-.133 1.462-.415.299-.265.449-.762.449-1.492V26.46c0-.713-.1-1.21-.316-1.492-.216-.265-.581-.415-1.113-.415h-.233c-.315 0-.548.05-.698.166-.149.116-.249.299-.299.547-.05.249-.099.647-.166 1.194-.199 2.122-.399 3.863-.598 5.189-.199 1.343-.499 2.536-.914 3.58-.764 1.824-1.778 2.736-3.074 2.736a2.76 2.76 0 01-1.778-.613c-.515-.415-.764-1.011-.764-1.774 0-.663.199-1.194.581-1.575.383-.381.898-.564 1.513-.564.598 0 1.063.183 1.412.547.349.365.515.813.515 1.36 0 .945-.565 1.658-1.695 2.138.1.034.216.05.349.05.947 0 1.778-.812 2.459-2.42.382-1.028.698-2.255.931-3.697.232-1.443.415-3.1.548-4.94.05-.697-.1-1.194-.432-1.476-.349-.282-.897-.415-1.645-.415v-.547c.382.034.947.05 1.662.05l2.459-.033c.515 0 1.13.017 1.877.05l1.512.033c.482 0 1.562-.033 3.257-.1v.498h-.033zm17.413 0c-.614 0-1.046.132-1.312.414-.25.265-.383.763-.383 1.492v8.704c0 .713.133 1.21.383 1.492.249.265.698.414 1.312.414v.547c-1.761-.066-2.924-.099-3.489-.099-.532 0-1.678.033-3.44.1v-.548c.532 0 .898-.132 1.114-.414.216-.265.315-.763.315-1.492v-7.99l-5.018 8.487c.034.53.167.895.383 1.094.216.2.565.299 1.013.299v.547c-1.628-.066-2.708-.1-3.273-.1-.532 0-1.745.034-3.656.1v-.547c.632 0 1.08-.133 1.33-.415.249-.265.365-.762.365-1.492v-8.703c0-.713-.116-1.21-.365-1.492-.25-.266-.682-.415-1.33-.415v-.547c1.828.066 2.991.1 3.49.1.598 0 1.744-.034 3.439-.1v.547c-.532 0-.897.133-1.113.415-.216.265-.316.762-.316 1.492v8.223l5.051-8.522c-.016-.613-.132-1.044-.348-1.26-.216-.232-.582-.348-1.064-.348v-.547c1.695.066 2.792.1 3.273.1.599 0 1.812-.034 3.656-.1v.564h-.017zm15.353-.547c-.116 1.376-.182 2.602-.182 3.697 0 .746.033 1.343.083 1.79h-.615c-.582-3.299-1.761-4.957-3.539-4.957h-.864v10.362c0 .812.199 1.376.614 1.69.416.316 1.031.481 1.861.481v.547l-.747-.033c-1.911-.05-3.107-.083-3.623-.083-.515 0-1.744.034-3.705.083l-.714.033v-.547c.864 0 1.495-.132 1.894-.398.399-.265.598-.795.598-1.608V24.52h-.98c-.814 0-1.496.382-2.077 1.128-.565.762-1.014 2.022-1.33 3.83h-.614c.05-.415.083-1.029.083-1.791 0-1.061-.067-2.288-.183-3.697h2.808l1.612.033c1.063.033 1.911.05 2.559.05.648 0 1.528-.017 2.608-.05l1.645-.033h2.808zm17.364.547c-.615 0-1.047.132-1.313.414-.249.265-.382.763-.382 1.492v8.704c0 .713.133 1.21.382 1.492.249.265.698.414 1.313.414v.547c-1.761-.066-2.924-.099-3.489-.099-.532 0-1.679.033-3.44.1v-.548c.532 0 .897-.132 1.113-.414.216-.265.316-.763.316-1.492v-7.99l-5.018 8.487c.033.53.166.895.382 1.094.216.2.565.299 1.014.299v.547c-1.629-.066-2.709-.1-3.274-.1-.531 0-1.744.034-3.655.1v-.547c.631 0 1.08-.133 1.329-.415.25-.265.366-.762.366-1.492v-8.703c0-.713-.116-1.21-.366-1.492-.249-.266-.681-.415-1.329-.415v-.547c1.828.066 2.991.1 3.489.1.599 0 1.745-.034 3.44-.1v.547c-.532 0-.897.133-1.113.415-.216.265-.316.762-.316 1.492v8.223l5.051-8.522c-.017-.613-.133-1.044-.349-1.26-.216-.232-.581-.348-1.063-.348v-.547c1.695.066 2.791.1 3.273.1.598 0 1.811-.034 3.656-.1v.564h-.017zm25.688-.017c-.449.017-.764.083-.997.183-.216.099-.382.298-.465.58-.083.282-.133.696-.133 1.26v8.471c0 .564.05.978.133 1.26.083.282.249.48.465.58.216.1.548.166.997.183v.547l-.615-.033c-1.479-.05-2.409-.083-2.808-.083-.382 0-1.429.033-3.124.083l-.614.033v-.547c.481-.017.83-.083 1.08-.183.249-.1.415-.298.515-.58.099-.282.149-.696.149-1.26v-9.516l-5.051 12.235h-.415l-5.052-12.085v8.206c0 1.127.167 1.94.482 2.42.333.497.981.763 1.978.796v.53a41.118 41.118 0 00-2.725-.082c-.898 0-1.612.033-2.144.082v-.53c.715-.033 1.213-.315 1.446-.862.249-.53.365-1.376.365-2.52v-6.93c0-.663-.05-1.144-.133-1.459-.083-.298-.249-.497-.498-.613-.249-.1-.648-.182-1.196-.215v-.531c.531.05 1.246.083 2.143.083 1.362 0 2.542-.033 3.539-.083l3.589 8.985 3.656-8.919a59.05 59.05 0 002.143.033 47.99 47.99 0 003.257-.099v.58h.033zm9.139 11.273c1.445 0 2.608-.696 3.489-2.105l.482.166a6.204 6.204 0 01-1.894 2.917c-.914.796-2.044 1.194-3.39 1.194-1.861 0-3.356-.597-4.453-1.774-1.097-1.193-1.645-2.934-1.645-5.255 0-2.37.598-4.194 1.778-5.438 1.18-1.26 2.742-1.89 4.702-1.89 3.307 0 4.968 1.957 4.968 5.852h-7.427c-.017.266-.033.68-.033 1.244 0 1.16.166 2.122.482 2.901.332.78.747 1.343 1.263 1.691.531.332 1.08.497 1.678.497zm-1.097-11.654c-.631 0-1.163.398-1.578 1.177-.416.78-.682 1.99-.781 3.63h4.154c.033-1.392-.1-2.536-.416-3.448-.299-.895-.764-1.36-1.379-1.36zm22.215.398c-.614 0-1.046.132-1.312.414-.249.265-.382.763-.382 1.492v8.704c0 .713.133 1.21.382 1.492.249.265.698.414 1.312.414v.547c-1.761-.066-2.924-.099-3.489-.099-.532 0-1.678.033-3.439.1v-.548c.531 0 .897-.132 1.113-.414.216-.265.316-.763.316-1.492v-4.31h-4.57v4.293c0 .713.1 1.21.316 1.492.216.266.582.415 1.113.415v.547c-1.628-.066-2.708-.1-3.273-.1-.532 0-1.745.034-3.656.1v-.547c.632 0 1.08-.133 1.33-.415.249-.265.365-.762.365-1.492v-8.703c0-.713-.116-1.21-.365-1.492-.25-.266-.682-.415-1.33-.415v-.547c1.828.066 2.991.1 3.49.1.598 0 1.744-.034 3.439-.1v.547c-.531 0-.897.133-1.113.415-.216.265-.316.762-.316 1.492v3.879h4.57v-3.88c0-.712-.1-1.21-.316-1.491-.216-.266-.582-.415-1.113-.415v-.547c1.695.066 2.791.1 3.273.1.598 0 1.811-.034 3.639-.1v.564h.016zm9.04 11.256c1.445 0 2.608-.696 3.489-2.105l.482.166a6.206 6.206 0 01-1.895 2.917c-.913.796-2.043 1.194-3.389 1.194-1.861 0-3.357-.597-4.453-1.774-1.097-1.193-1.645-2.934-1.645-5.255 0-2.37.598-4.194 1.778-5.438 1.179-1.26 2.741-1.89 4.702-1.89 3.307 0 4.968 1.957 4.968 5.852h-7.427c-.017.266-.033.68-.033 1.244 0 1.16.166 2.122.482 2.901.332.78.747 1.343 1.262 1.691.532.332 1.08.497 1.679.497zm-1.097-11.654c-.632 0-1.163.398-1.579 1.177-.415.78-.681 1.99-.781 3.63h4.154c.034-1.392-.099-2.536-.415-3.448-.299-.895-.764-1.36-1.379-1.36zm18.709 12.898c-.116 1.16-.182 2.172-.182 3.067 0 .696.033 1.243.083 1.641h-.615c-.183-1.061-.399-1.89-.681-2.487-.266-.613-.648-1.044-1.13-1.31-.482-.265-1.114-.397-1.894-.397-.881 0-1.546.016-2.011.033l-3.041.033c-.797 0-1.429.133-1.911.381-.481.249-.847.68-1.129 1.277-.266.597-.499 1.426-.682 2.487h-.614c.049-.382.083-.929.083-1.642 0-.878-.067-1.906-.183-3.067h.498a2.05 2.05 0 001.429-.547c.399-.364.715-.829.947-1.392.449-1.028.765-2.205.947-3.548.2-1.343.366-3.05.532-5.106.05-.696-.1-1.194-.432-1.476-.349-.281-.897-.414-1.645-.414v-.547c.382.033.981.05 1.778.05.416 0 .748-.017.98-.034l1.645-.033c.516 0 1.13.017 1.878.05.631.033 1.113.05 1.446.05.498 0 1.578-.033 3.273-.1v.547c-.582 0-.98.133-1.196.398-.216.265-.333.763-.333 1.476v8.736c0 .746.15 1.244.449 1.51.316.231.881.364 1.711.364zm-5.948-10.594c0-.713-.1-1.21-.316-1.492-.216-.265-.581-.414-1.113-.414h-.233c-.531 0-.864.116-1.03.364-.166.25-.266.763-.349 1.526-.199 2.238-.382 3.995-.565 5.288-.183 1.293-.498 2.454-.93 3.465-.382.846-.864 1.459-1.446 1.84h4.254c.648 0 1.113-.132 1.362-.414.25-.265.382-.763.382-1.492v-8.67h-.016zm27.832 9.151c.199.498.398.846.614 1.061.216.216.532.349.947.398v.547c-.664.1-1.296.166-1.91.166-1.047 0-1.845-.199-2.41-.597-.565-.398-.98-1.06-1.246-1.989a30.11 30.11 0 01-.233-.912 8.123 8.123 0 00-.481-1.392 4.713 4.713 0 00-.665-1.111c-.299-.365-.648-.63-1.047-.763-.399-.132-.88-.199-1.462-.182v4.327c0 .713.1 1.21.316 1.492.216.265.581.414 1.113.414v.547c-1.695-.066-2.808-.099-3.356-.099-.516 0-1.612.033-3.307.1v-.548c.532 0 .897-.132 1.113-.414.216-.265.316-.763.316-1.492v-4.327a4.322 4.322 0 00-1.446.182 2.4 2.4 0 00-1.063.763c-.565.696-1.03 1.84-1.379 3.398-.216.929-.615 1.592-1.196 1.99-.599.398-1.413.597-2.443.597-.598 0-1.23-.05-1.911-.166v-.547c.416-.05.748-.183.947-.398.216-.216.416-.564.615-1.061.183-.448.366-.945.548-1.525.2-.564.366-1.012.499-1.36.133-.348.316-.646.532-.912.781-.994 2.077-1.508 3.904-1.508.349 0 .615.016.765.033-.515-.232-.898-.547-1.163-.978-.266-.415-.516-.995-.748-1.74l-.183-.614c-.199-.68-.349-1.194-.482-1.509a2.161 2.161 0 00-.532-.796c-.216-.198-.531-.331-.913-.38.315.181.548.397.681.646.133.248.216.53.216.812 0 .63-.216 1.11-.648 1.459a2.39 2.39 0 01-1.496.497c-.581 0-1.063-.182-1.429-.547-.365-.365-.548-.862-.548-1.475 0-.63.199-1.144.615-1.509.415-.381 1.047-.564 1.894-.564.681 0 1.23.15 1.645.431.415.282.715.664.914 1.128.199.464.432 1.127.681 1.99.216.762.416 1.325.615 1.723.199.398.498.713.864.962.382.248.914.414 1.628.497v-3.896c0-.713-.116-1.21-.349-1.492-.232-.265-.648-.414-1.246-.414v-.547c1.828.066 3.024.1 3.573.1.581 0 1.711-.034 3.406-.1v.547c-.582 0-.997.132-1.23.414-.232.265-.349.763-.349 1.492v3.88c.682-.067 1.213-.216 1.596-.448.382-.232.681-.547.88-.945.216-.398.432-.995.665-1.774.249-.879.465-1.542.681-2.006a2.71 2.71 0 01.897-1.127c.399-.282.931-.431 1.629-.431.864 0 1.495.182 1.91.563.399.382.615.88.615 1.51 0 .612-.183 1.11-.548 1.475-.366.364-.847.547-1.446.547a2.387 2.387 0 01-1.495-.498c-.432-.331-.648-.812-.648-1.459 0-.281.083-.547.233-.812.149-.249.382-.464.697-.647-.382.05-.697.183-.93.398a2.194 2.194 0 00-.548.813c-.133.331-.3.829-.516 1.508l-.166.58c-.232.763-.482 1.343-.747 1.758-.266.414-.648.73-1.163.961.199-.016.481-.033.847-.033 1.778 0 3.057.498 3.838 1.509.349.48.698 1.243 1.064 2.32.282.747.448 1.244.565 1.51zM390.39 24.52c-.449.017-.765.083-.997.183-.216.099-.383.298-.466.58-.083.282-.133.696-.133 1.26v8.471c0 .564.05.978.133 1.26.083.282.25.481.466.58.216.1.548.166.997.183v.547l-.615-.033c-1.479-.05-2.41-.083-2.808-.083-.382 0-1.429.033-3.124.083l-.615.033v-.547c.482-.017.831-.083 1.08-.183.249-.099.416-.298.515-.58.1-.282.15-.696.15-1.26v-9.516l-5.051 12.235h-.416l-5.051-12.085v8.206c0 1.127.166 1.94.482 2.42.332.497.98.763 1.977.796v.53a41.126 41.126 0 00-2.725-.082c-.897 0-1.612.033-2.143.082v-.53c.714-.033 1.213-.315 1.445-.862.249-.53.366-1.376.366-2.52v-6.93c0-.663-.05-1.144-.133-1.459-.083-.298-.249-.497-.499-.613-.249-.1-.648-.182-1.196-.215v-.531c.532.05 1.246.083 2.144.083 1.362 0 2.542-.033 3.539-.083l3.589 8.985 3.655-8.919c.432.017 1.147.033 2.144.033 1.213 0 2.293-.033 3.256-.099v.58h.034zm9.138 11.273c1.446 0 2.609-.696 3.49-2.105l.481.166a6.196 6.196 0 01-1.894 2.917c-.914.796-2.043 1.194-3.389 1.194-1.861 0-3.357-.597-4.453-1.774-1.097-1.193-1.645-2.934-1.645-5.255 0-2.37.598-4.194 1.778-5.438 1.179-1.26 2.741-1.89 4.702-1.89 3.306 0 4.968 1.957 4.968 5.852h-7.427c-.017.266-.034.68-.034 1.244 0 1.16.167 2.122.482 2.901.333.78.748 1.343 1.263 1.691a3.05 3.05 0 001.678.497zm-1.113-11.654c-.631 0-1.163.398-1.578 1.177-.416.78-.682 1.99-.781 3.63h4.154c.033-1.392-.1-2.536-.416-3.448-.299-.895-.764-1.36-1.379-1.36zm22.232.398c-.615 0-1.047.132-1.313.414-.249.265-.382.763-.382 1.492v8.704c0 .713.133 1.21.382 1.492.25.265.698.414 1.313.414v.547c-1.761-.066-2.924-.099-3.489-.099-.532 0-1.678.033-3.44.1v-.548c.532 0 .897-.132 1.113-.414.217-.265.316-.763.316-1.492v-4.31h-4.569v4.293c0 .713.1 1.21.316 1.492.216.266.581.415 1.113.415v.547c-1.629-.066-2.709-.1-3.274-.1-.531 0-1.744.034-3.655.1v-.547c.631 0 1.08-.133 1.329-.415.249-.265.366-.762.366-1.492v-8.703c0-.713-.117-1.21-.366-1.492-.249-.266-.681-.415-1.329-.415v-.547c1.828.066 2.991.1 3.489.1.598 0 1.745-.034 3.44-.1v.547c-.532 0-.897.133-1.113.415-.216.265-.316.762-.316 1.492v3.879h4.569v-3.88c0-.712-.099-1.21-.316-1.491-.216-.266-.581-.415-1.113-.415v-.547c1.695.066 2.792.1 3.274.1.598 0 1.811-.034 3.638-.1v.564h.017zM436 23.989c-.116 1.376-.183 2.602-.183 3.697 0 .746.034 1.343.083 1.79h-.614c-.582-3.299-1.762-4.957-3.54-4.957h-.864v10.362c0 .812.2 1.376.615 1.69.416.316 1.03.481 1.861.481v.547l-.748-.033c-1.91-.05-3.107-.083-3.622-.083-.515 0-1.744.034-3.705.083l-.715.033v-.547c.864 0 1.496-.132 1.895-.398.398-.265.598-.795.598-1.608V24.52h-.981c-.814 0-1.495.382-2.077 1.128-.565.762-1.013 2.022-1.329 3.83h-.615c.05-.415.083-1.029.083-1.791 0-1.061-.066-2.288-.182-3.697h2.808l1.611.033a86.51 86.51 0 002.559.05c.648 0 1.529-.017 2.609-.05l1.645-.033H436zM84.06 56.1h-.432v3.615h-1.662v-8.488h1.662v3.763l.382-.166 2.343-3.58h1.894l-2.476 3.564-.648.464.681.48 2.825 3.98h-2.06l-2.51-3.631zm8.906-.63c0-1.408.316-2.502.93-3.265.632-.763 1.512-1.144 2.675-1.144.615 0 1.13.1 1.596.315.448.216.83.514 1.13.895.299.382.514.846.664 1.393.15.547.216 1.144.216 1.807 0 1.409-.316 2.503-.947 3.266-.632.762-1.512 1.144-2.659 1.144-.614 0-1.146-.1-1.595-.315a3.15 3.15 0 01-1.13-.896c-.299-.38-.515-.845-.664-1.392-.15-.547-.216-1.144-.216-1.807zm1.744 0c0 .432.034.83.117 1.178.066.365.183.663.332.928.15.266.349.464.582.614.232.149.515.215.83.215.599 0 1.047-.232 1.38-.696.315-.464.481-1.21.481-2.238a6.06 6.06 0 00-.1-1.144 3.59 3.59 0 00-.315-.928 1.738 1.738 0 00-.565-.63 1.558 1.558 0 00-.864-.233c-.598 0-1.047.233-1.38.713-.348.481-.498 1.21-.498 2.222zm17.298-.148l.182-1.691h-.066l-.515 1.359-1.811 3.166h-.532l-1.911-3.166-.532-1.343h-.066l.249 1.675v4.41h-1.578v-8.489h1.512l2.276 3.88.399.961h.05l.365-.995 2.144-3.846h1.512v8.488h-1.662v-4.41h-.016zm11.813-2.603h-2.974v6.996h-1.661v-8.488h6.297v8.488h-1.662v-6.996zm11.615 0h-1.811a59.697 59.697 0 01-.117 2.089 21.72 21.72 0 01-.166 1.707c-.066.498-.166.945-.266 1.343a4.68 4.68 0 01-.432 1.011 2.696 2.696 0 01-.382.465 2.614 2.614 0 01-.448.298 2.38 2.38 0 01-.449.15c-.15.032-.282.049-.415.049-.183 0-.349-.017-.466-.05a1.369 1.369 0 01-.365-.133l.183-1.425a.476.476 0 00.149.033c.05 0 .1.017.15.017a.82.82 0 00.382-.1.689.689 0 00.316-.331 2.52 2.52 0 00.315-.78c.083-.348.166-.779.233-1.31.066-.53.116-1.176.166-1.906.033-.746.066-1.608.083-2.586h5.018v8.488h-1.662v-7.03h-.016zm7.178-1.476h5.035v1.476h-3.373v1.973h3.073v1.475h-3.073v2.072h3.439v1.476h-5.101v-8.472zm12.478 4.858h-.432v3.614h-1.661v-8.488h1.661v3.763l.383-.166 2.342-3.58h1.895l-2.476 3.564-.648.464.681.48 2.825 3.98h-2.044l-2.526-3.631zm14.921 3.266a2.605 2.605 0 01-.996.398 6.07 6.07 0 01-1.23.116c-.515 0-.997-.083-1.446-.233a3.016 3.016 0 01-1.213-.762c-.349-.348-.631-.812-.83-1.376-.2-.564-.316-1.243-.316-2.04 0-.828.116-1.524.349-2.088.232-.564.532-1.011.897-1.36a3.276 3.276 0 011.23-.745c.448-.15.914-.233 1.362-.233.482 0 .897.034 1.23.1.332.066.615.15.831.232l-.333 1.41a2.889 2.889 0 00-.664-.2 6.971 6.971 0 00-.931-.066c-.665 0-1.213.232-1.628.713-.416.48-.615 1.21-.615 2.221 0 .431.05.83.15 1.194.099.365.249.663.448.928.2.249.449.448.748.597.299.15.631.216 1.03.216.366 0 .665-.034.931-.117.249-.066.465-.165.648-.281l.348 1.376zm9.854-3.2h-3.107v3.548h-1.662v-8.488h1.662v3.448h3.107v-3.448h1.661v8.488h-1.661v-3.548zm6.929-.696c0-1.41.315-2.503.93-3.266.631-.763 1.512-1.144 2.675-1.144.615 0 1.13.1 1.595.315.449.216.831.514 1.13.895.299.382.515.846.665 1.393.149.547.216 1.144.216 1.807 0 1.409-.316 2.503-.947 3.266-.632.762-1.512 1.144-2.659 1.144-.615 0-1.146-.1-1.595-.315a3.147 3.147 0 01-1.13-.896c-.299-.38-.515-.845-.664-1.392-.15-.547-.216-1.144-.216-1.807zm1.744 0c0 .43.033.829.116 1.177.067.365.183.663.333.928.149.266.349.464.581.614.233.149.515.215.831.215.598 0 1.047-.232 1.379-.696.316-.464.482-1.21.482-2.238a6.06 6.06 0 00-.1-1.144 3.568 3.568 0 00-.315-.928 1.748 1.748 0 00-.565-.63 1.559 1.559 0 00-.864-.233c-.598 0-1.047.233-1.379.713-.333.481-.499 1.21-.499 2.222zm10.701-4.228h5.034v1.476h-3.373v1.973h3.074v1.475h-3.074v2.072h3.44v1.476h-5.101v-8.472zm19.341 4.228c0-1.41.315-2.503.93-3.266.632-.763 1.512-1.144 2.675-1.144.615 0 1.13.1 1.595.315.449.216.831.514 1.13.895.299.382.515.846.665 1.393.149.547.216 1.144.216 1.807 0 1.409-.316 2.503-.947 3.266-.632.762-1.512 1.144-2.659 1.144-.615 0-1.146-.1-1.595-.315a3.155 3.155 0 01-1.13-.896c-.299-.38-.515-.845-.664-1.392a7.584 7.584 0 01-.216-1.807zm1.744 0c0 .43.034.829.117 1.177.066.365.182.663.332.928.149.266.349.464.581.614.233.149.516.215.831.215.598 0 1.047-.232 1.379-.696.316-.464.482-1.21.482-2.238 0-.415-.033-.796-.099-1.144a3.606 3.606 0 00-.316-.928 1.739 1.739 0 00-.565-.63 1.559 1.559 0 00-.864-.233c-.598 0-1.047.233-1.379.713-.333.481-.499 1.21-.499 2.222zm10.718-4.228h5.234v1.476h-3.573v1.774c.133-.017.299-.05.499-.067.199-.016.398-.033.581-.033.449 0 .864.05 1.246.133s.698.232.981.447c.266.2.482.481.631.813.15.331.233.746.233 1.227 0 .48-.083.895-.233 1.243a2.37 2.37 0 01-.681.879 3.044 3.044 0 01-1.064.53 5.17 5.17 0 01-1.395.182c-.133 0-.316 0-.515-.016-.2 0-.432-.017-.648-.033a8.569 8.569 0 01-.682-.067 3.17 3.17 0 01-.614-.099v-8.389zm2.575 7.195c.216 0 .399-.033.582-.083.182-.05.348-.132.481-.232s.25-.248.333-.414c.083-.166.116-.365.116-.614 0-.281-.05-.513-.133-.696a1.107 1.107 0 00-.365-.414c-.15-.1-.333-.166-.532-.2a4.047 4.047 0 00-.632-.049c-.116 0-.249.017-.432.033a2.836 2.836 0 00-.349.05v2.536c.084.017.233.034.399.05.2.033.382.033.532.033zm14.157.929a2.617 2.617 0 01-.997.398 6.063 6.063 0 01-1.23.116c-.515 0-.997-.083-1.445-.233a3.009 3.009 0 01-1.213-.762c-.349-.348-.632-.812-.831-1.376-.2-.564-.316-1.243-.316-2.04 0-.828.116-1.524.349-2.088.233-.564.532-1.011.897-1.36a3.276 3.276 0 011.23-.745c.449-.15.914-.233 1.362-.233.482 0 .898.034 1.23.1.332.066.615.15.831.232l-.333 1.41a2.858 2.858 0 00-.664-.2 6.958 6.958 0 00-.931-.066c-.664 0-1.213.232-1.628.713-.415.48-.615 1.21-.615 2.221 0 .431.05.83.15 1.194.099.365.249.663.448.928.2.249.449.448.748.597.299.15.631.216 1.03.216.366 0 .665-.034.931-.117.249-.066.465-.165.648-.281l.349 1.376zm9.637-6.648h-1.811a59.697 59.697 0 01-.117 2.089 21.72 21.72 0 01-.166 1.707c-.066.498-.166.945-.266 1.343a4.68 4.68 0 01-.432 1.011 2.696 2.696 0 01-.382.465 2.614 2.614 0 01-.448.298 2.38 2.38 0 01-.449.15c-.15.032-.282.049-.415.049-.183 0-.349-.017-.466-.05a1.369 1.369 0 01-.365-.133l.183-1.425a.476.476 0 00.149.033c.05 0 .1.017.15.017a.82.82 0 00.382-.1.689.689 0 00.316-.331 2.52 2.52 0 00.315-.78c.083-.348.166-.779.233-1.31.066-.53.116-1.176.166-1.906a90.92 90.92 0 00.083-2.586h5.018v8.488h-1.661v-7.03h-.017zm10.019 2.255l.25 1.11h.066l.199-1.144 1.28-3.713h1.711l-2.26 5.869c-.182.464-.348.862-.515 1.193a4.995 4.995 0 01-.531.846 1.997 1.997 0 01-.632.497c-.232.116-.515.166-.831.166-.265 0-.481-.017-.648-.05a1.872 1.872 0 01-.548-.232l.432-1.343c.133.066.266.116.382.133.117.016.233.016.366.016.382 0 .648-.298.797-.895l-3.173-6.184h1.96l1.695 3.73zm11.266-3.73h1.578v3.763l.432-.166 1.762-3.598h1.877l-1.977 3.714-.565.414.665.498 2.226 3.846h-2.01l-1.961-3.68h-.465v3.68h-1.579v-3.83l-.432.166-1.96 3.664h-1.945L276.571 56l.648-.48-.631-.448-2.077-3.846h1.927l1.761 3.614h.482v-3.598h.017zm15.669 3.763l.099-1.094h-.066l-.565 1.143-3.174 4.659h-1.246v-8.488h1.662v4.609l-.117 1.143h.067l.598-1.177 3.174-4.575h1.246v8.488h-1.662v-4.708h-.016zm12.91-1.79c0 .215-.033.414-.083.63-.05.215-.133.397-.266.58a2.045 2.045 0 01-.465.464 2.214 2.214 0 01-.698.298v.066c.249.033.465.116.698.2.216.099.399.231.565.397.166.166.282.381.382.614.1.248.133.53.133.862 0 .43-.1.812-.283 1.127-.182.315-.432.58-.747.78a3.608 3.608 0 01-1.064.447c-.398.1-.797.149-1.229.149h-.532c-.216 0-.449 0-.698-.017l-.748-.05a4.364 4.364 0 01-.697-.116v-8.355c.149-.017.332-.05.531-.066.2-.017.416-.05.632-.066.232-.017.465-.034.698-.034.232 0 .481-.016.714-.016.399 0 .781.033 1.163.083.382.066.715.165 1.014.315.299.149.531.364.714.646.166.282.266.63.266 1.061zm-3.041 5.221c.2 0 .399-.016.582-.066.183-.05.349-.116.498-.215a1.089 1.089 0 00.482-.929c0-.265-.05-.464-.149-.63-.1-.15-.233-.265-.399-.348a1.88 1.88 0 00-.565-.166 7.606 7.606 0 00-.615-.033h-.864v2.321a.44.44 0 00.183.033c.083 0 .183.017.282.017.1 0 .2 0 .316.016h.249zm-.515-3.647c.117 0 .25 0 .399-.016.15 0 .266-.017.366-.034.315-.1.565-.232.797-.43a.99.99 0 00.332-.763c0-.2-.033-.382-.116-.514a1.005 1.005 0 00-.316-.332 1.312 1.312 0 00-.448-.166 2.753 2.753 0 00-.532-.05c-.216 0-.399 0-.581.017-.183.017-.316.017-.416.033v2.239h.515v.016zm13.243 3.05h-2.609l-.648 1.874h-1.661l3.057-8.538h1.23l3.057 8.538h-1.745l-.681-1.873zm-2.177-1.342h1.828l-.631-1.89-.249-1.327h-.067l-.249 1.343-.632 1.874zm14.174-.332h-3.107v3.548h-1.662v-8.488h1.662v3.448h3.107v-3.448h1.661v8.488h-1.661v-3.548zm12.129-1.16l.1-1.094h-.066l-.565 1.143-3.174 4.659h-1.246v-8.488h1.661v4.609l-.116 1.143h.067l.598-1.177 3.173-4.575h1.247v8.488h-1.662v-4.708h-.017zm7.195-3.764h5.035v1.476h-3.373v1.973h3.074v1.475h-3.074v2.072h3.439v1.476h-5.101v-8.472zm20.321 4.709v-1.294h.881c.116 0 .216-.016.316-.016.099-.017.182-.033.249-.05.282-.066.531-.182.731-.348.199-.166.299-.398.299-.68 0-.381-.116-.646-.366-.795-.249-.15-.565-.216-.98-.216-.365 0-.698.05-1.013.15-.316.099-.549.182-.715.281l-.432-1.41c.083-.049.216-.099.382-.148.166-.05.349-.116.565-.166.216-.05.449-.1.698-.133a5.73 5.73 0 011.811.05c.332.066.648.182.914.332.266.165.482.38.648.646.166.265.249.614.249 1.028 0 .414-.116.812-.332 1.16-.216.349-.582.614-1.08.78v.066c.532.1.93.331 1.229.68.3.348.449.812.449 1.392 0 .464-.1.862-.282 1.177a2.46 2.46 0 01-.731.813c-.3.215-.648.364-1.047.464-.399.1-.798.149-1.213.149-.532 0-1.014-.05-1.462-.133a4.092 4.092 0 01-1.014-.315l.432-1.442c.183.083.449.183.798.265.349.1.764.133 1.246.133.183 0 .365-.017.548-.066.183-.05.349-.116.499-.216.149-.1.265-.232.349-.398.083-.166.132-.348.132-.58 0-.381-.149-.663-.432-.862-.282-.199-.797-.298-1.528-.315-.1 0-.166-.017-.216-.017h-.582v.034zm17.164 5.272h-1.179l-.183-1.51h-5.467l-.183 1.51h-1.179v-2.985h.897c.05-.082.15-.281.282-.596a7.18 7.18 0 00.383-1.31c.133-.564.232-1.26.332-2.106.083-.845.133-1.84.116-3h5.085v6.996h1.08v3h.016zm-2.741-2.985v-5.52h-1.878c-.05 1.442-.166 2.62-.349 3.531-.183.912-.365 1.575-.548 1.99h2.775zm11.93-.397h-2.609l-.648 1.873h-1.661l3.057-8.538h1.23l3.057 8.538h-1.745l-.681-1.873zm-2.193-1.343h1.827l-.631-1.89-.249-1.327h-.067l-.249 1.343-.631 1.874zm14.173-.332h-3.107v3.548h-1.662v-8.488h1.662v3.448h3.107v-3.448h1.662v8.488h-1.662v-3.548zm12.13-1.16l.099-1.094h-.066l-.565 1.143-3.174 4.659h-1.246v-8.488h1.662v4.609l-.117 1.143h.067l.598-1.177 3.174-4.575h1.246v8.488h-1.662v-4.708h-.016zm12.146 0l.099-1.094h-.066l-.565 1.143-3.174 4.659h-1.246v-8.488h1.662v4.609l-.116 1.143h.066l.598-1.177 3.174-4.575h1.246v8.488h-1.662v-4.708h-.016zm-2.376-5.886c.033.266.133.448.282.564.166.116.366.166.615.166.548 0 .847-.232.897-.713l1.346.199c-.083.514-.316.878-.698 1.11-.382.233-.897.349-1.562.349a5.24 5.24 0 01-.914-.067 2.577 2.577 0 01-.714-.232c-.199-.116-.382-.248-.515-.447a1.446 1.446 0 01-.249-.697l1.512-.232z" fill="#fff"/></svg>