<svg width="34" height="34" fill="none" xmlns="http://www.w3.org/2000/svg"><path d="M2 13.721a36.932 36.932 0 0019.132 18.583l1.36.605a7 7 0 008.661-2.494l1.776-2.647a2 2 0 00-.405-2.671l-6.024-4.86a2 2 0 00-2.862.366l-1.864 2.515a24.28 24.28 0 01-11.022-11.023l2.514-1.863a2 2 0 00.366-2.863l-4.86-6.024A2 2 0 006.102.94L3.436 2.727a7 7 0 00-2.474 8.711L2 13.718v.002z" fill="url(#paint0_linear_1451_151)"/><defs><linearGradient id="paint0_linear_1451_151" x1=".334" y1="2.658" x2="31.195" y2="28.244" gradientUnits="userSpaceOnUse"><stop stop-color="#D0D0D0"/><stop offset="1" stop-color="#747474"/></linearGradient></defs></svg>