<svg width="32" height="40" fill="none" xmlns="http://www.w3.org/2000/svg"><path d="M9.77 17.167a6.23 6.23 0 1112.459 0 6.23 6.23 0 01-12.459 0z" fill="url(#paint0_linear_1451_46)"/><path fill-rule="evenodd" clip-rule="evenodd" d="M.232 15.015C.891 7.025 7.568.875 15.586.875h.827c8.018 0 14.695 6.15 15.354 14.14a16.662 16.662 0 01-3.707 11.916l-9.186 11.235a3.713 3.713 0 01-5.748 0L3.939 26.93A16.662 16.662 0 01.232 15.015zM16 8.062a9.104 9.104 0 100 18.209 9.104 9.104 0 000-18.209z" fill="url(#paint1_linear_1451_46)"/><defs><linearGradient id="paint0_linear_1451_46" x1=".176" y1="3.291" x2="34.444" y2="26.538" gradientUnits="userSpaceOnUse"><stop stop-color="#D0D0D0"/><stop offset="1" stop-color="#747474"/></linearGradient><linearGradient id="paint1_linear_1451_46" x1=".176" y1="3.291" x2="34.444" y2="26.538" gradientUnits="userSpaceOnUse"><stop stop-color="#D0D0D0"/><stop offset="1" stop-color="#747474"/></linearGradient></defs></svg>