<svg width="34" height="26" fill="none" xmlns="http://www.w3.org/2000/svg"><path d="M8.261.364a105.047 105.047 0 0117.478 0l2.801.234c1.865.156 3.462 1.224 4.29 2.752.106.196.026.433-.169.549l-11.623 6.91a8.163 8.163 0 01-8.16.081L1.177 4.25C.987 4.141.9 3.92.986 3.726 1.743 1.999 3.446.767 5.46.598l2.8-.234z" fill="url(#paint0_linear_1218_6115)"/><path d="M.976 7.24c-.289-.164-.658.012-.692.333a51.955 51.955 0 00.342 13.468c.368 2.352 2.367 4.155 4.834 4.361l2.801.234a105.04 105.04 0 0017.478 0l2.801-.234c2.467-.206 4.466-2.009 4.834-4.361.719-4.591.819-9.25.3-13.86-.037-.323-.413-.496-.7-.325l-10.471 6.226a11.043 11.043 0 01-11.04.109L.975 7.24z" fill="url(#paint1_linear_1218_6115)"/><defs><linearGradient id="paint0_linear_1218_6115" x1="0" y1="1.625" x2="24.728" y2="28.418" gradientUnits="userSpaceOnUse"><stop stop-color="#D0D0D0"/><stop offset="1" stop-color="#747474"/></linearGradient><linearGradient id="paint1_linear_1218_6115" x1="0" y1="1.625" x2="24.728" y2="28.418" gradientUnits="userSpaceOnUse"><stop stop-color="#D0D0D0"/><stop offset="1" stop-color="#747474"/></linearGradient></defs></svg>