<svg width="24" height="21" fill="none" xmlns="http://www.w3.org/2000/svg"><path d="M23.218 12.248a.79.79 0 00-.783.79v6.38H1.565v-6.38a.79.79 0 00-.783-.79.79.79 0 00-.782.79v7.171c0 .434.353.79.782.79h22.436a.79.79 0 00.782-.79v-7.17a.775.775 0 00-.782-.791z" fill="#7C7C7C"/><path d="M11.482 15.106c.151.153.353.23.555.23a.778.778 0 00.555-.23l4.619-4.67a.776.776 0 000-1.097.756.756 0 00-1.085 0l-3.281 3.317V.791A.79.79 0 0012.062 0a.79.79 0 00-.782.791v11.89L7.95 9.314a.756.756 0 00-1.085 0 .776.776 0 000 1.098l4.618 4.695z" fill="#7C7C7C"/></svg>