<svg width="488" height="85" fill="none" xmlns="http://www.w3.org/2000/svg"><path fill-rule="evenodd" clip-rule="evenodd" d="M69.76 57.79l1.636-2.915 5.84 3.268-1.636 2.915A38.297 38.297 0 0161.503 75.41a38.471 38.471 0 01-18.877 5.273H3.627V41.766c.149-10.38 4.426-19.774 11.27-26.607a38.359 38.359 0 0127.19-11.234 38.38 38.38 0 0119.527 5.33A38.299 38.299 0 0175.73 23.736l1.618 2.934-5.877 3.212-1.618-2.934A31.84 31.84 0 0058.21 14.992a31.764 31.764 0 00-16.124-4.382c-8.76 0-16.7 3.546-22.429 9.284-5.747 5.737-9.299 13.647-9.299 22.392a31.501 31.501 0 009.3 22.393c5.746 5.737 13.668 9.283 22.428 9.283 5.765 0 11.288-1.54 16.05-4.344A31.443 31.443 0 0069.76 57.79zm-30.537 7.984V53.408h6.713v12.347h-6.713v.02zm28.1-33.793l-13.408 7.668-3.33-5.811 13.41-7.687 3.329 5.83zm-47.535-7.037l14.953 8.82-3.404 5.755-14.952-8.82 3.403-5.755z" fill="#B1B1B1"/><path d="M16.292 53.668l24.735-14.52 1.692-.984 1.674.984 22.968 13.35-3.348 5.793L42.72 45.925 19.66 59.461l-3.367-5.793zm22.95-22.504v-16.34h6.713v16.34h-6.714z" fill="#B1B1B1"/><path d="M122.149 41.116c-.539.594-1.097 1.022-1.711 1.3-.614.279-1.358.409-2.213.409-1.153 0-2.046-.242-2.697-.706-.651-.464-1.078-1.3-1.302-2.488l-.799-4.512c-.149-.836-.372-1.486-.633-1.95a2.455 2.455 0 00-1.19-1.058c-.521-.241-1.246-.353-2.176-.353h-.409v7.539c0 .742.056 1.28.167 1.615.112.334.317.557.614.687.298.111.781.204 1.451.241v.595c-1.004-.056-2.567-.093-4.668-.093-1.916 0-3.404.037-4.464.093v-.595c.651-.037 1.135-.111 1.432-.241a.995.995 0 00.614-.687c.112-.334.168-.873.168-1.615v-7.539h-.41c-.93 0-1.655.112-2.176.353-.52.241-.911.594-1.19 1.058-.26.465-.483 1.114-.632 1.95l-.8 4.512c-.223 1.188-.65 2.005-1.302 2.488-.65.464-1.543.706-2.696.706-.874 0-1.6-.13-2.213-.409-.614-.278-1.19-.706-1.711-1.3l.409-.352c.204.222.372.37.54.482.166.112.371.167.613.186.372 0 .67-.149.874-.464.205-.297.39-.854.54-1.671l.855-3.955c.316-1.374 1.004-2.377 2.064-2.971 1.06-.594 2.548-.966 4.463-1.077l-5.356-6.406c-1.302-1.522-2.733-2.47-4.314-2.84v-.558a36.67 36.67 0 002.808.093c1.45 0 2.901-.037 4.352-.093v.557c-.688.037-1.228.186-1.6.465-.371.26-.557.65-.557 1.132 0 .743.446 1.671 1.357 2.748L100 28.49c.837.966 1.562 1.653 2.195 2.08.632.427 1.339.65 2.139.668v-6.61c0-.742-.056-1.281-.168-1.634a1.078 1.078 0 00-.614-.687c-.297-.111-.781-.204-1.45-.241v-.594c1.06.055 2.548.092 4.463.092 2.102 0 3.664-.037 4.668-.092v.594c-.651.037-1.134.111-1.432.241a.997.997 0 00-.614.687c-.111.334-.167.873-.167 1.634v6.61a3.938 3.938 0 002.139-.668c.632-.427 1.357-1.114 2.194-2.08l1.748-2.098c.912-1.077 1.358-2.005 1.358-2.748 0-.464-.186-.854-.576-1.114-.391-.279-.912-.427-1.581-.464v-.557c1.413.055 2.864.093 4.352.093a37.59 37.59 0 002.808-.093v.557c-1.562.353-2.994 1.3-4.315 2.84l-5.393 6.407c1.934.111 3.44.482 4.501 1.076 1.06.595 1.748 1.597 2.064 2.971l.855 3.955c.149.799.335 1.356.54 1.671.204.297.502.465.874.465.223-.02.409-.075.576-.186.168-.093.354-.26.577-.502l.409.353zm10.917-20.034c1.19 0 2.194.167 3.013.501a9.776 9.776 0 012.417 1.411c.223.186.409.26.558.26.391 0 .651-.594.763-1.764h.688c-.075 1.337-.112 3.714-.112 7.149h-.688c-.186-1.448-.409-2.563-.707-3.342-.297-.762-.799-1.43-1.506-2.006a5.135 5.135 0 00-1.711-1.077 5.87 5.87 0 00-2.046-.37c-1.99 0-3.477.965-4.445 2.914-.967 1.931-1.45 4.364-1.45 7.26 0 2.878.502 5.273 1.506 7.204 1.005 1.931 2.511 2.897 4.501 2.897a5.73 5.73 0 001.99-.371 4.49 4.49 0 001.674-1.077c.725-.557 1.246-1.244 1.525-2.061.279-.836.502-2.043.669-3.64h.688c0 3.565.037 6.053.112 7.446h-.651c-.056-.631-.149-1.077-.261-1.337-.111-.26-.26-.39-.464-.39-.149 0-.372.075-.614.242-.893.63-1.73 1.114-2.548 1.43-.8.315-1.785.482-2.92.482-2.083 0-3.924-.427-5.486-1.263a8.909 8.909 0 01-3.645-3.676c-.856-1.597-1.302-3.528-1.302-5.737 0-2.173.446-4.085 1.339-5.756.893-1.671 2.12-2.971 3.719-3.9 1.563-.965 3.367-1.43 5.394-1.43zm34.331 5.644c1.729 0 3.087.632 4.073 1.894.967 1.263 1.469 3.12 1.469 5.59 0 2.747-.595 4.882-1.767 6.386-1.172 1.504-2.789 2.247-4.835 2.247-1.079 0-1.972-.223-2.641-.687v2.692c0 .873.204 1.467.614 1.801.409.335 1.004.502 1.822.502v.612l-.707-.037c-2.008-.055-3.291-.093-3.849-.093-.558 0-1.841.038-3.85.093l-.707.038v-.613c.837 0 1.432-.167 1.842-.502.39-.334.595-.928.595-1.8v-2.953c-.726.631-1.748.947-3.05.947-1.879 0-3.366-.668-4.501-2.005-1.116-1.337-1.692-3.342-1.692-5.998 0-2.655.558-4.679 1.692-6.034 1.116-1.374 2.66-2.061 4.612-2.061 1.246 0 2.213.316 2.92.965v-3.008c0-.91-.13-1.56-.409-1.986-.279-.409-.763-.613-1.488-.613v-.631a21.73 21.73 0 001.99.092c1.655 0 3.05-.13 4.166-.408v6.814c.428-.39.986-.705 1.655-.91a6.472 6.472 0 012.046-.334zm-9.708 15.003c.335 0 .669-.056.967-.148.316-.093.577-.223.762-.39V28.34a2.466 2.466 0 00-.874-.575 2.647 2.647 0 00-.985-.185c-1.934 0-2.901 2.395-2.901 7.185 0 2.507.26 4.29.762 5.366.502 1.059 1.265 1.597 2.269 1.597zm7.513.297c1.172 0 1.99-.631 2.492-1.875.503-1.244.763-3.101.763-5.57 0-2.47-.223-4.197-.688-5.237-.465-1.02-1.172-1.54-2.139-1.54-.353 0-.707.055-1.041.185a2.099 2.099 0 00-.874.538v13.016c.409.316.911.483 1.487.483zm13.484.594c-1.265 0-2.214-.315-2.827-.965-.614-.65-.93-1.504-.93-2.563 0-.89.223-1.615.688-2.21a4.753 4.753 0 011.692-1.336c.67-.316 1.507-.65 2.53-1.003 1.078-.371 1.878-.705 2.38-1.02.502-.298.763-.725.763-1.264v-2.302c0-.835-.186-1.467-.577-1.93-.39-.465-.986-.688-1.785-.688-.949 0-1.674.242-2.158.706.558.204.986.501 1.284.89.297.39.465.855.465 1.393 0 .669-.224 1.207-.689 1.597-.446.39-1.004.595-1.655.595-.688 0-1.227-.223-1.599-.65-.372-.428-.558-.966-.558-1.616 0-.557.13-1.021.39-1.41.261-.39.67-.744 1.228-1.078.539-.315 1.19-.557 1.971-.743.781-.185 1.637-.26 2.567-.26.967 0 1.804.093 2.51.298.707.204 1.302.538 1.767 1.002.428.427.725.966.874 1.597.149.631.223 1.485.223 2.562v8.04c0 .464.038.799.131 1.003.093.204.26.297.52.297.298 0 .651-.167 1.06-.501l.298.5c-.893.725-1.971 1.096-3.255 1.096-1.078 0-1.841-.222-2.269-.65-.427-.426-.669-1.02-.688-1.745-.985 1.56-2.436 2.358-4.351 2.358zm2.287-1.894c.763 0 1.432-.408 2.009-1.206v-6.054c-.242.39-.744.836-1.507 1.3-.762.502-1.357.984-1.748 1.486-.391.5-.595 1.206-.595 2.135 0 .798.167 1.411.502 1.782.335.372.781.557 1.339.557zm16.831-14a8.28 8.28 0 012.064.242c.651.148 1.19.371 1.618.65.521.315.911.705 1.19 1.188.279.483.428 1.003.428 1.578 0 .687-.223 1.263-.651 1.69-.428.446-1.004.668-1.692.668s-1.246-.204-1.655-.594c-.409-.39-.614-.928-.614-1.597 0-.594.186-1.095.558-1.54a2.921 2.921 0 011.395-.892c-.149-.223-.391-.39-.726-.52a2.73 2.73 0 00-1.041-.186c-1.19 0-2.102.65-2.771 1.931-.67 1.282-.986 2.971-.986 5.07 0 2.097.372 3.62 1.116 4.548.744.929 1.692 1.393 2.808 1.393.67 0 1.339-.186 2.027-.538.689-.353 1.302-.966 1.842-1.857l.502.185a7.291 7.291 0 01-2.065 3.287c-.985.91-2.25 1.374-3.812 1.374-2.027 0-3.682-.668-4.966-2.005-1.283-1.337-1.915-3.324-1.915-5.96 0-1.727.316-3.213.948-4.438.633-1.226 1.507-2.136 2.604-2.767 1.116-.594 2.362-.91 3.794-.91zm24.939 1.059c-.688 0-1.171.148-1.469.464-.279.297-.428.854-.428 1.671v9.748c0 .798.149 1.355.428 1.671.279.297.781.464 1.469.464v.613c-1.971-.074-3.273-.111-3.905-.111-.595 0-1.879.037-3.85.111v-.613c.595 0 1.004-.148 1.246-.464.242-.297.353-.854.353-1.671v-8.95l-5.616 9.507c.037.594.186 1.003.428 1.225.241.223.632.335 1.134.335v.612c-1.822-.074-3.031-.111-3.664-.111-.595 0-1.952.037-4.091.111v-.612c.707 0 1.209-.149 1.488-.464.279-.298.409-.855.409-1.672v-9.748c0-.798-.13-1.355-.409-1.67-.279-.298-.763-.465-1.488-.465v-.613c2.046.075 3.347.112 3.905.112.67 0 1.953-.037 3.85-.112v.613c-.595 0-1.004.149-1.246.464-.242.297-.353.854-.353 1.671v9.21l5.653-9.544c-.018-.687-.148-1.17-.39-1.41-.242-.26-.651-.39-1.19-.39v-.614c1.897.075 3.124.112 3.663.112.67 0 2.027-.037 4.092-.112v.632h-.019zm17.872 0c-.65 0-1.097.148-1.339.464-.241.297-.372.854-.372 1.671v9.748c0 .798.131 1.355.391 1.671.26.297.707.464 1.339.464v.613c-1.897-.074-3.162-.111-3.794-.111-.521 0-1.748.037-3.701.092a5.42 5.42 0 01-.614.038v-.613c.744 0 1.284-.149 1.637-.464.335-.297.502-.854.502-1.671v-9.748c0-.799-.111-1.356-.353-1.672-.242-.297-.651-.464-1.246-.464h-.261c-.353 0-.613.056-.781.186-.167.13-.279.334-.334.613-.056.278-.112.724-.186 1.337-.224 2.376-.447 4.326-.67 5.811-.223 1.504-.558 2.841-1.023 4.01-.855 2.043-1.99 3.065-3.44 3.065a3.085 3.085 0 01-1.99-.688c-.577-.464-.856-1.132-.856-1.986 0-.743.223-1.337.651-1.764.428-.427 1.004-.632 1.693-.632.669 0 1.19.205 1.58.613.391.409.577.91.577 1.523 0 1.058-.632 1.857-1.897 2.395.112.037.242.056.39.056 1.061 0 1.99-.91 2.753-2.711.428-1.151.781-2.525 1.041-4.14.261-1.616.465-3.473.614-5.534.056-.78-.111-1.337-.483-1.652-.391-.316-1.005-.465-1.842-.465v-.612c.428.037 1.06.055 1.86.055l2.753-.037c.576 0 1.264.019 2.101.056l1.693.037c.539 0 1.748-.037 3.645-.111v.557h-.038zm19.491 0c-.688 0-1.172.148-1.47.464-.278.297-.427.854-.427 1.671v9.748c0 .798.149 1.355.427 1.671.279.297.782.464 1.47.464v.613c-1.972-.074-3.274-.111-3.906-.111-.595 0-1.878.037-3.85.111v-.613c.596 0 1.005-.148 1.247-.464.241-.297.353-.854.353-1.671v-8.95l-5.617 9.507c.038.594.186 1.003.428 1.225.242.223.632.335 1.135.335v.612c-1.823-.074-3.032-.111-3.664-.111-.595 0-1.953.037-4.092.111v-.612c.707 0 1.209-.149 1.488-.464.279-.298.409-.855.409-1.672v-9.748c0-.798-.13-1.355-.409-1.67-.279-.298-.762-.465-1.488-.465v-.613c2.046.075 3.348.112 3.906.112.669 0 1.953-.037 3.85-.112v.613c-.596 0-1.005.149-1.246.464-.242.297-.354.854-.354 1.671v9.21l5.654-9.544c-.019-.687-.149-1.17-.391-1.41-.241-.26-.651-.39-1.19-.39v-.614c1.897.075 3.124.112 3.664.112.669 0 2.027-.037 4.091-.112v.632h-.018zm17.184-.613c-.13 1.541-.205 2.915-.205 4.14 0 .836.037 1.504.093 2.006h-.688c-.651-3.695-1.971-5.552-3.961-5.552h-.967v11.605c0 .91.223 1.541.688 1.894.465.353 1.153.538 2.083.538v.613l-.837-.037c-2.139-.056-3.478-.093-4.054-.093-.577 0-1.953.037-4.148.093l-.799.037v-.613c.967 0 1.673-.148 2.12-.445.446-.297.669-.892.669-1.801v-11.79h-1.097c-.911 0-1.674.426-2.325 1.262-.632.854-1.134 2.265-1.487 4.289h-.689a17.78 17.78 0 00.093-2.005c0-1.189-.074-2.563-.204-4.141h3.143l1.804.037c1.19.037 2.139.056 2.864.056.725 0 1.711-.019 2.92-.056l1.841-.037h3.143zm19.434.613c-.688 0-1.171.148-1.469.464-.279.297-.428.854-.428 1.671v9.748c0 .798.149 1.355.428 1.671.279.297.781.464 1.469.464v.613c-1.971-.074-3.273-.111-3.905-.111-.595 0-1.879.037-3.85.111v-.613c.595 0 1.004-.148 1.246-.464.242-.297.353-.854.353-1.671v-8.95l-5.616 9.507c.037.594.186 1.003.428 1.225.242.223.632.335 1.134.335v.612c-1.822-.074-3.031-.111-3.664-.111-.595 0-1.952.037-4.091.111v-.612c.707 0 1.209-.149 1.488-.464.279-.298.409-.855.409-1.672v-9.748c0-.798-.13-1.355-.409-1.67-.279-.298-.763-.465-1.488-.465v-.613c2.046.075 3.348.112 3.906.112.669 0 1.952-.037 3.849-.112v.613c-.595 0-1.004.149-1.246.464-.242.297-.353.854-.353 1.671v9.21l5.653-9.544c-.018-.687-.148-1.17-.39-1.41-.242-.26-.651-.39-1.19-.39v-.614c1.897.075 3.124.112 3.663.112.67 0 2.028-.037 4.092-.112v.632h-.019zm28.752-.019c-.502.019-.855.093-1.116.204-.242.112-.428.335-.52.65-.093.316-.149.78-.149 1.411v9.489c0 .63.056 1.095.149 1.41.092.316.278.54.52.65.242.112.614.186 1.116.205v.612l-.688-.037c-1.655-.055-2.697-.093-3.143-.093-.428 0-1.599.038-3.496.093l-.688.037v-.612c.539-.019.929-.093 1.208-.204.279-.112.465-.335.577-.65.111-.316.167-.78.167-1.411V28.861l-5.653 13.703h-.465l-5.654-13.536v9.19c0 1.263.186 2.173.539 2.712.372.557 1.098.854 2.213.89v.595a45.939 45.939 0 00-3.05-.093 26.48 26.48 0 00-2.399.093v-.594c.8-.037 1.358-.353 1.618-.966.279-.594.41-1.54.41-2.822v-7.761c0-.743-.056-1.281-.149-1.634-.093-.334-.279-.557-.558-.687-.279-.112-.725-.204-1.339-.242v-.594a26.34 26.34 0 002.399.093c1.525 0 2.845-.037 3.961-.093l4.017 10.064 4.092-9.99c.502.02 1.283.038 2.399.038 1.357 0 2.566-.038 3.645-.112v.65h.037zm10.229 12.626c1.618 0 2.92-.78 3.905-2.358l.54.186a6.953 6.953 0 01-2.121 3.268c-1.022.89-2.287 1.337-3.793 1.337-2.083 0-3.757-.669-4.985-1.987-1.227-1.337-1.841-3.287-1.841-5.886 0-2.655.67-4.698 1.99-6.09 1.321-1.411 3.069-2.117 5.263-2.117 3.701 0 5.561 2.19 5.561 6.554h-8.313a22.49 22.49 0 00-.037 1.393c0 1.3.186 2.377.539 3.25.372.872.837 1.503 1.413 1.893.595.371 1.209.557 1.879.557zm-1.228-13.053c-.706 0-1.302.446-1.766 1.318-.465.873-.763 2.229-.875 4.067h4.65c.037-1.56-.112-2.841-.465-3.862-.335-1.003-.856-1.523-1.544-1.523zm24.865.446c-.688 0-1.171.148-1.469.464-.279.297-.428.854-.428 1.671v9.748c0 .798.149 1.355.428 1.671.279.297.781.464 1.469.464v.613c-1.971-.074-3.273-.111-3.905-.111-.595 0-1.879.037-3.85.111v-.613c.595 0 1.004-.148 1.246-.464.242-.297.353-.854.353-1.671V34.84h-5.114v4.81c0 .798.112 1.355.353 1.67.242.298.651.465 1.247.465v.612c-1.823-.074-3.032-.111-3.664-.111-.595 0-1.953.037-4.092.111v-.612c.707 0 1.209-.149 1.488-.464.279-.298.409-.855.409-1.672v-9.748c0-.798-.13-1.355-.409-1.67-.279-.298-.762-.465-1.488-.465v-.613c2.046.075 3.348.112 3.906.112.669 0 1.953-.037 3.85-.112v.613c-.596 0-1.005.149-1.247.464-.241.297-.353.854-.353 1.671v4.345h5.114v-4.345c0-.798-.111-1.355-.353-1.67-.242-.298-.651-.465-1.246-.465v-.613c1.897.075 3.124.112 3.664.112.669 0 2.027-.037 4.073-.112v.632h.018zm10.117 12.607c1.618 0 2.92-.78 3.906-2.358l.539.186a6.944 6.944 0 01-2.12 3.268c-1.023.89-2.288 1.337-3.794 1.337-2.083 0-3.757-.669-4.984-1.987-1.227-1.337-1.841-3.287-1.841-5.886 0-2.655.669-4.698 1.99-6.09 1.32-1.411 3.068-2.117 5.263-2.117 3.701 0 5.56 2.19 5.56 6.554h-8.313c-.018.297-.037.762-.037 1.393 0 1.3.186 2.377.54 3.25.372.872.836 1.503 1.413 1.893.595.371 1.209.557 1.878.557zm-1.227-13.053c-.707 0-1.302.446-1.767 1.318-.465.873-.762 2.229-.874 4.067h4.649c.038-1.56-.111-2.841-.465-3.862-.334-1.003-.855-1.523-1.543-1.523zm20.941 14.446c-.13 1.3-.205 2.432-.205 3.435 0 .78.037 1.392.093 1.838h-.688c-.205-1.188-.446-2.117-.762-2.785-.298-.687-.726-1.17-1.265-1.467-.539-.297-1.246-.446-2.12-.446-.986 0-1.73.019-2.251.037l-3.403.038c-.893 0-1.599.148-2.139.427-.539.278-.948.76-1.264 1.43-.298.668-.558 1.596-.763 2.785h-.688c.056-.428.093-1.04.093-1.839 0-.984-.074-2.135-.204-3.435h.557a2.3 2.3 0 001.6-.612c.446-.409.8-.929 1.06-1.56.502-1.151.855-2.47 1.06-3.974.223-1.504.409-3.416.595-5.718.056-.78-.111-1.337-.483-1.653-.391-.316-1.005-.464-1.842-.464v-.613c.428.037 1.098.056 1.99.056.465 0 .837-.019 1.098-.037l1.841-.038c.576 0 1.264.02 2.101.056.707.037 1.246.056 1.618.056.558 0 1.767-.037 3.664-.111v.612c-.651 0-1.097.149-1.339.446-.242.297-.372.854-.372 1.652v9.786c0 .835.167 1.392.502 1.69.354.26.986.408 1.916.408zm-6.658-11.865c0-.798-.112-1.356-.354-1.671-.241-.297-.65-.464-1.246-.464h-.26c-.595 0-.967.13-1.153.408-.186.279-.298.854-.391 1.708-.223 2.507-.427 4.475-.632 5.924-.204 1.448-.558 2.747-1.041 3.88-.428.947-.967 1.634-1.618 2.061h4.761c.725 0 1.246-.148 1.525-.464.279-.297.427-.854.427-1.671V29.92h-.018zm31.151 10.25c.223.556.446.946.688 1.188.242.241.595.39 1.06.445v.613c-.744.111-1.451.186-2.139.186-1.171 0-2.064-.223-2.696-.669-.633-.445-1.098-1.188-1.395-2.228-.037-.13-.13-.483-.261-1.021a9.091 9.091 0 00-.539-1.56c-.223-.501-.465-.91-.744-1.244-.335-.408-.725-.705-1.171-.854-.447-.149-.986-.223-1.637-.204v4.846c0 .798.112 1.355.353 1.671.242.297.651.464 1.246.464v.613c-1.897-.074-3.143-.111-3.756-.111-.577 0-1.804.037-3.701.111v-.613c.595 0 1.004-.148 1.246-.464.242-.297.353-.854.353-1.671v-4.846a4.822 4.822 0 00-1.618.204 2.68 2.68 0 00-1.19.854c-.632.78-1.153 2.061-1.544 3.806-.241 1.04-.688 1.783-1.339 2.229-.669.445-1.58.668-2.734.668-.669 0-1.376-.056-2.138-.186v-.612c.465-.056.837-.205 1.06-.446.242-.241.465-.631.688-1.188.204-.502.409-1.059.614-1.709a63.62 63.62 0 01.558-1.522c.148-.39.353-.724.595-1.021.874-1.114 2.324-1.69 4.37-1.69.391 0 .688.019.856.037-.577-.26-1.005-.613-1.302-1.095-.298-.465-.577-1.114-.837-1.95l-.205-.687c-.223-.761-.39-1.337-.539-1.69a2.419 2.419 0 00-.595-.89c-.242-.224-.595-.372-1.023-.428.353.204.614.446.762.724.149.279.242.595.242.91 0 .706-.242 1.244-.725 1.634a2.673 2.673 0 01-1.674.557c-.651 0-1.19-.204-1.599-.613-.409-.408-.614-.965-.614-1.652 0-.706.223-1.281.688-1.69.465-.427 1.172-.631 2.12-.631.763 0 1.377.167 1.841.483.465.315.8.742 1.023 1.262.224.52.484 1.263.763 2.228.242.855.465 1.486.688 1.931.223.446.558.799.967 1.077.428.279 1.023.465 1.823.557V29.92c0-.799-.131-1.356-.391-1.671-.26-.297-.725-.464-1.395-.464v-.613c2.046.074 3.385.111 3.999.111.651 0 1.915-.037 3.812-.111v.613c-.651 0-1.116.148-1.376.464-.26.297-.391.854-.391 1.671v4.345c.763-.075 1.358-.242 1.786-.502.428-.26.762-.612.985-1.058.242-.445.484-1.114.744-1.987.279-.984.521-1.726.763-2.246.223-.52.558-.929 1.004-1.263.446-.316 1.042-.483 1.823-.483.967 0 1.673.205 2.138.632.447.427.688.984.688 1.69 0 .686-.204 1.243-.613 1.652-.409.408-.949.613-1.618.613-.633 0-1.19-.186-1.674-.557-.484-.372-.725-.91-.725-1.634 0-.316.093-.613.26-.91.167-.279.428-.52.781-.724-.428.055-.781.204-1.041.445a2.455 2.455 0 00-.614.91c-.149.371-.335.928-.577 1.69l-.186.65c-.26.854-.539 1.504-.836 1.968-.298.464-.726.817-1.302 1.077.223-.019.539-.038.948-.038 1.99 0 3.422.558 4.296 1.69.391.539.781 1.393 1.191 2.6.316.835.502 1.392.632 1.69zm23.284-12.404c-.502.019-.855.093-1.116.204-.242.112-.428.335-.521.65-.093.316-.148.78-.148 1.411v9.488c0 .632.055 1.096.148 1.412.093.315.279.538.521.65.242.11.614.185 1.116.204v.612l-.688-.037c-1.655-.055-2.697-.093-3.143-.093-.428 0-1.6.038-3.496.093l-.689.037v-.612c.54-.019.93-.093 1.209-.205.279-.111.465-.334.577-.65.111-.315.167-.78.167-1.41V28.861l-5.653 13.703h-.465l-5.654-13.536v9.19c0 1.263.186 2.173.539 2.712.372.557 1.098.854 2.213.89v.595a45.954 45.954 0 00-3.05-.093 26.34 26.34 0 00-2.399.093v-.594c.8-.037 1.358-.353 1.618-.966.279-.594.409-1.54.409-2.822v-7.761c0-.743-.055-1.281-.148-1.634-.093-.334-.279-.557-.558-.687-.279-.112-.726-.205-1.339-.242v-.594a26.34 26.34 0 002.399.093 79.7 79.7 0 003.961-.093l4.017 10.064 4.092-9.99c.483.02 1.283.038 2.399.038 1.357 0 2.566-.038 3.645-.112v.65h.037zm10.229 12.626c1.618 0 2.919-.78 3.905-2.358l.539.186a6.944 6.944 0 01-2.12 3.268c-1.023.89-2.287 1.337-3.794 1.337-2.082 0-3.756-.669-4.984-1.987-1.227-1.337-1.841-3.287-1.841-5.886 0-2.655.67-4.698 1.99-6.09 1.32-1.411 3.069-2.117 5.263-2.117 3.701 0 5.561 2.19 5.561 6.554h-8.313c-.019.297-.037.761-.037 1.393 0 1.3.186 2.377.539 3.25.372.872.837 1.503 1.413 1.893a3.42 3.42 0 001.879.557zm-1.246-13.053c-.707 0-1.302.446-1.767 1.318-.465.873-.763 2.229-.874 4.067h4.649c.037-1.56-.111-2.841-.465-3.862-.335-1.003-.855-1.523-1.543-1.523zm24.883.446c-.688 0-1.172.148-1.469.464-.279.297-.428.854-.428 1.671v9.748c0 .798.149 1.355.428 1.671.279.297.781.464 1.469.464v.613c-1.971-.074-3.273-.111-3.905-.111-.595 0-1.879.037-3.85.111v-.613c.595 0 1.004-.148 1.246-.464.242-.297.353-.854.353-1.671V34.84h-5.114v4.81c0 .798.112 1.355.353 1.67.242.298.651.465 1.246.465v.612c-1.822-.074-3.031-.111-3.663-.111-.595 0-1.953.037-4.092.111v-.612c.707 0 1.209-.149 1.488-.464.279-.298.409-.855.409-1.672v-9.748c0-.798-.13-1.355-.409-1.67-.279-.298-.762-.465-1.488-.465v-.613c2.046.075 3.348.112 3.906.112.669 0 1.952-.037 3.849-.112v.613c-.595 0-1.004.149-1.246.464-.241.297-.353.854-.353 1.671v4.345h5.114v-4.345c0-.798-.111-1.355-.353-1.67-.242-.298-.651-.465-1.246-.465v-.613c1.897.075 3.124.112 3.664.112.669 0 2.027-.037 4.073-.112v.632h.018zM488 27.172c-.13 1.541-.204 2.915-.204 4.14 0 .836.037 1.504.093 2.006h-.688c-.651-3.695-1.972-5.552-3.962-5.552h-.967v11.605c0 .91.223 1.541.688 1.894.465.353 1.153.538 2.083.538v.613l-.837-.037c-2.138-.056-3.477-.093-4.054-.093-.576 0-1.953.037-4.147.093l-.8.037v-.613c.967 0 1.674-.148 2.12-.445.447-.297.67-.892.67-1.801v-11.79h-1.097c-.912 0-1.674.426-2.325 1.262-.632.854-1.135 2.265-1.488 4.289h-.688a17.78 17.78 0 00.093-2.005c0-1.189-.074-2.563-.205-4.141h3.143l1.804.037c1.191.037 2.139.056 2.864.056.726 0 1.711-.019 2.92-.056l1.841-.037H488zM94.085 63.138h-.483v4.047h-1.86V57.68h1.86v4.215l.428-.186 2.622-4.01h2.12l-2.771 3.991-.725.52.762.539 3.162 4.456h-2.306l-2.809-4.066zm9.969-.706c0-1.578.353-2.804 1.041-3.658.707-.854 1.693-1.281 2.994-1.281.689 0 1.265.111 1.786.353.502.241.93.575 1.264 1.002.335.428.577.947.744 1.56.168.613.242 1.281.242 2.024 0 1.578-.353 2.804-1.06 3.658-.707.854-1.692 1.281-2.976 1.281-.688 0-1.283-.111-1.785-.353a3.531 3.531 0 01-1.265-1.002c-.334-.428-.576-.947-.743-1.56-.168-.613-.242-1.281-.242-2.024zm1.953 0c0 .483.037.928.13 1.318.074.409.204.743.372 1.04.167.297.39.52.651.687.26.167.576.241.929.241.67 0 1.172-.26 1.544-.78.353-.52.539-1.355.539-2.506 0-.464-.037-.891-.111-1.281a4.034 4.034 0 00-.354-1.04 1.955 1.955 0 00-.632-.706c-.26-.167-.576-.26-.967-.26-.669 0-1.172.26-1.544.799-.39.538-.557 1.355-.557 2.488zm19.36-.167l.204-1.894h-.074l-.577 1.523-2.027 3.546h-.595l-2.139-3.546-.595-1.505h-.074l.279 1.876v4.939h-1.767v-9.507h1.692l2.548 4.345.447 1.077h.055l.409-1.114 2.4-4.308h1.692v9.507h-1.86v-4.94h-.018zm13.222-2.915h-3.329v7.835h-1.859V57.68h7.048v9.506h-1.86V59.35zm13 0h-2.027a67.12 67.12 0 01-.13 2.34 24.86 24.86 0 01-.186 1.912 13.496 13.496 0 01-.298 1.504 5.31 5.31 0 01-.483 1.132c-.13.205-.279.372-.428.52-.167.13-.316.242-.502.335-.168.074-.335.13-.502.167a2.118 2.118 0 01-.465.055c-.205 0-.391-.018-.521-.055a1.534 1.534 0 01-.409-.149l.204-1.597a.546.546 0 00.168.037c.056 0 .111.019.167.019a.92.92 0 00.428-.111.765.765 0 00.353-.372 2.79 2.79 0 00.354-.873c.093-.39.186-.872.26-1.466.074-.594.13-1.319.186-2.136.037-.835.074-1.8.093-2.896h5.616v9.506h-1.859V59.35h-.019zm8.034-1.653h5.635v1.653h-3.775v2.21h3.441v1.652h-3.441v2.32h3.85v1.653h-5.71v-9.488zm13.967 5.44h-.483v4.048h-1.86V57.68h1.86v4.215l.427-.186 2.623-4.01h2.12l-2.771 3.991-.726.52.763.539 3.161 4.456h-2.287l-2.827-4.066zm16.701 3.658c-.298.205-.651.353-1.116.446-.447.093-.911.13-1.376.13a5.092 5.092 0 01-1.618-.26 3.376 3.376 0 01-1.358-.854c-.391-.39-.707-.91-.93-1.541-.223-.631-.353-1.393-.353-2.284 0-.928.13-1.708.39-2.34.261-.63.595-1.132 1.005-1.522.409-.39.874-.669 1.376-.836a4.87 4.87 0 011.525-.26c.539 0 1.004.038 1.376.112.372.074.688.167.93.26l-.372 1.578a3.225 3.225 0 00-.744-.223 7.792 7.792 0 00-1.041-.074c-.744 0-1.358.26-1.823.798-.465.539-.688 1.356-.688 2.488 0 .483.056.929.167 1.337.112.409.279.743.502 1.04.224.279.503.501.837.668.335.168.707.242 1.153.242.41 0 .744-.037 1.042-.13.279-.074.521-.186.725-.316l.391 1.541zm11.028-3.583h-3.478v3.973h-1.859V57.68h1.859v3.862h3.478V57.68h1.86v9.506h-1.86v-3.973zm7.755-.78c0-1.578.354-2.804 1.042-3.658.706-.854 1.692-1.281 2.994-1.281.688 0 1.265.111 1.785.353.502.241.93.575 1.265 1.002.335.428.576.947.744 1.56.167.613.242 1.281.242 2.024 0 1.578-.354 2.804-1.061 3.658-.706.854-1.692 1.281-2.975 1.281-.688 0-1.283-.111-1.785-.353a3.522 3.522 0 01-1.265-1.002c-.335-.428-.577-.947-.744-1.56-.167-.613-.242-1.281-.242-2.024zm1.953 0c0 .483.037.928.13 1.318.075.409.205.743.372 1.04.167.297.391.52.651.687.26.167.577.241.93.241.669 0 1.172-.26 1.543-.78.354-.52.54-1.355.54-2.506 0-.464-.037-.891-.112-1.281a3.997 3.997 0 00-.353-1.04c-.168-.297-.372-.538-.632-.706-.261-.167-.577-.26-.968-.26-.669 0-1.171.26-1.543.799-.372.538-.558 1.355-.558 2.488zm11.977-4.735h5.635v1.653h-3.775v2.21h3.44v1.652h-3.44v2.32h3.849v1.653h-5.709v-9.488zm21.647 4.735c0-1.578.354-2.804 1.042-3.658.707-.854 1.692-1.281 2.994-1.281.688 0 1.265.111 1.785.353.503.241.93.575 1.265 1.002.335.428.577.947.744 1.56.167.613.242 1.281.242 2.024 0 1.578-.354 2.804-1.06 3.658-.707.854-1.693 1.281-2.976 1.281-.688 0-1.283-.111-1.785-.353a3.531 3.531 0 01-1.265-1.002c-.335-.428-.577-.947-.744-1.56a8.492 8.492 0 01-.242-2.024zm1.953 0c0 .483.037.928.13 1.318.075.409.205.743.372 1.04.168.297.391.52.651.687.261.167.577.241.93.241.67 0 1.172-.26 1.544-.78.353-.52.539-1.355.539-2.506 0-.464-.037-.891-.112-1.281a3.997 3.997 0 00-.353-1.04 1.955 1.955 0 00-.632-.706c-.261-.167-.577-.26-.967-.26-.67 0-1.172.26-1.544.799-.372.538-.558 1.355-.558 2.488zm11.996-4.735h5.858v1.653h-3.999v1.986c.149-.018.335-.055.558-.074.223-.018.447-.037.651-.037.502 0 .967.056 1.395.149.428.092.781.26 1.097.5.298.224.54.54.707.91.167.372.26.836.26 1.375 0 .538-.093 1.002-.26 1.392-.186.39-.428.724-.763.984-.334.26-.725.465-1.19.595-.465.13-.986.204-1.562.204-.149 0-.353 0-.577-.019a9.98 9.98 0 01-.725-.037 9.6 9.6 0 01-.762-.074 3.539 3.539 0 01-.688-.111v-9.396zm2.882 8.059c.242 0 .446-.038.651-.093.205-.056.391-.149.539-.26.149-.112.279-.279.372-.464.093-.186.13-.409.13-.687a1.88 1.88 0 00-.148-.78 1.239 1.239 0 00-.409-.464 1.528 1.528 0 00-.596-.223 4.34 4.34 0 00-.706-.056c-.13 0-.279.019-.484.037a3.125 3.125 0 00-.39.056v2.84c.093.02.26.038.446.056.223.038.428.038.595.038zm15.845 1.04c-.297.204-.651.352-1.116.445-.446.093-.911.13-1.376.13a5.096 5.096 0 01-1.618-.26 3.366 3.366 0 01-1.357-.854c-.391-.39-.707-.91-.93-1.541-.223-.631-.354-1.393-.354-2.284 0-.928.131-1.708.391-2.34.26-.63.595-1.132 1.004-1.522.409-.39.874-.669 1.376-.836a4.875 4.875 0 011.525-.26c.54 0 1.005.038 1.377.112.372.074.688.167.929.26l-.371 1.578a3.24 3.24 0 00-.744-.223 7.808 7.808 0 00-1.042-.074c-.744 0-1.357.26-1.822.798-.465.539-.689 1.356-.689 2.488 0 .483.056.929.168 1.337.111.409.279.743.502 1.04.223.279.502.501.837.668.335.168.707.242 1.153.242.409 0 .744-.037 1.041-.13.279-.074.521-.186.726-.316l.39 1.541zm10.787-7.446h-2.027a69.676 69.676 0 01-.13 2.34 25.37 25.37 0 01-.186 1.912 13.496 13.496 0 01-.298 1.504 5.31 5.31 0 01-.484 1.132c-.13.205-.279.372-.427.52-.168.13-.316.242-.502.335-.168.074-.335.13-.503.167a2.111 2.111 0 01-.465.055c-.204 0-.39-.018-.52-.055a1.534 1.534 0 01-.409-.149l.204-1.597a.546.546 0 00.168.037c.055 0 .111.019.167.019a.92.92 0 00.428-.111.77.77 0 00.353-.372c.13-.204.26-.483.353-.873.093-.39.186-.872.261-1.466.074-.594.13-1.319.186-2.136.037-.835.074-1.8.093-2.896h5.616v9.506h-1.86V59.35h-.018zm11.214 2.525l.279 1.244h.075l.223-1.281 1.432-4.16h1.915l-2.529 6.574c-.205.52-.391.965-.577 1.337-.186.37-.39.686-.595.946a2.23 2.23 0 01-.706.558c-.261.13-.577.185-.93.185a3.83 3.83 0 01-.726-.056 2.08 2.08 0 01-.613-.26l.483-1.504c.149.075.298.13.428.149.13.019.26.019.409.019.428 0 .725-.335.893-1.003l-3.552-6.926h2.194l1.897 4.178zm12.609-4.178h1.767v4.215l.484-.186 1.971-4.029h2.101l-2.213 4.16-.632.464.744.557 2.492 4.307h-2.25l-2.195-4.122h-.521v4.122h-1.766v-4.289l-.484.186-2.194 4.103h-2.176l2.492-4.159.725-.538-.707-.502-2.324-4.307h2.157l1.971 4.047h.54v-4.029h.018zm17.538 4.215l.111-1.225h-.074l-.632 1.28-3.552 5.218h-1.395V57.68h1.859v5.161l-.13 1.282h.075l.669-1.319 3.552-5.124h1.395v9.506h-1.86v-5.273h-.018zm14.45-2.005c0 .241-.037.464-.093.705a1.735 1.735 0 01-.297.65 2.331 2.331 0 01-.521.52c-.223.149-.484.26-.781.334v.075c.279.037.52.13.781.222.242.112.446.26.632.446s.316.427.428.687c.111.279.149.594.149.965a2.5 2.5 0 01-.316 1.263c-.205.353-.484.65-.837.873-.354.223-.744.39-1.191.501a5.581 5.581 0 01-1.376.167h-.595c-.242 0-.502 0-.781-.018l-.837-.056a4.9 4.9 0 01-.781-.13v-9.358c.167-.019.372-.056.595-.074.223-.019.465-.056.707-.075.26-.018.521-.037.781-.037s.539-.018.8-.018c.446 0 .874.037 1.301.093.428.074.8.185 1.135.352.335.167.595.409.8.724.186.316.297.706.297 1.189zm-3.403 5.849c.223 0 .446-.019.651-.075.204-.055.39-.13.558-.241.167-.111.297-.26.39-.427.093-.167.149-.372.149-.613 0-.297-.056-.52-.167-.705a1.141 1.141 0 00-.447-.39 2.098 2.098 0 00-.632-.186 8.524 8.524 0 00-.688-.037h-.967v2.6a.494.494 0 00.204.036c.093 0 .205.019.316.019.112 0 .224 0 .354.019h.279zm-.577-4.085c.13 0 .279 0 .447-.019.167 0 .297-.018.409-.037.353-.111.632-.26.892-.483.242-.223.372-.501.372-.854 0-.223-.037-.427-.13-.575a1.123 1.123 0 00-.353-.372 1.477 1.477 0 00-.502-.186 3.089 3.089 0 00-.595-.055c-.242 0-.447 0-.651.018-.205.019-.354.019-.465.038v2.506h.576v.019zm14.822 3.416h-2.919l-.726 2.098h-1.859l3.422-9.562h1.376l3.422 9.562h-1.953l-.763-2.098zm-2.436-1.504h2.046l-.707-2.117-.279-1.485h-.074l-.279 1.504-.707 2.098zm15.864-.371h-3.478v3.973h-1.86V57.68h1.86v3.862h3.478V57.68h1.86v9.506h-1.86v-3.973zm13.576-1.3l.112-1.225h-.075l-.632 1.28-3.552 5.218h-1.395V57.68h1.86v5.161l-.13 1.282h.074l.67-1.319 3.552-5.124h1.395v9.506h-1.86v-5.273h-.019zm8.053-4.215h5.635v1.653h-3.775v2.21h3.44v1.652h-3.44v2.32h3.849v1.653h-5.709v-9.488zm22.745 5.273v-1.448h.985c.131 0 .242-.018.354-.018.111-.019.204-.037.279-.056.316-.074.595-.204.818-.39.223-.186.335-.446.335-.761 0-.427-.13-.724-.409-.892-.279-.167-.633-.24-1.098-.24a3.72 3.72 0 00-1.134.166c-.353.112-.614.204-.8.316l-.483-1.578c.093-.056.241-.112.427-.168.186-.055.391-.13.633-.185.241-.056.502-.112.781-.149a6.413 6.413 0 012.027.056c.372.074.725.204 1.023.371.297.186.539.427.725.724.186.297.279.687.279 1.152 0 .464-.13.91-.372 1.3s-.651.686-1.209.872v.074c.595.112 1.042.372 1.377.762.334.39.502.91.502 1.56 0 .52-.112.965-.316 1.318a2.756 2.756 0 01-.819.91 3.367 3.367 0 01-1.171.52 5.555 5.555 0 01-1.358.166 8.938 8.938 0 01-1.637-.148c-.483-.093-.874-.223-1.134-.353l.483-1.615c.205.093.503.204.893.297.391.111.856.148 1.395.148.205 0 .409-.018.614-.074.204-.056.39-.13.558-.241a1.14 1.14 0 00.39-.446c.093-.186.149-.39.149-.65 0-.427-.167-.742-.484-.965-.316-.223-.892-.335-1.711-.353-.111 0-.186-.019-.241-.019h-.651v.037zm19.211 5.905h-1.32l-.205-1.69h-6.119l-.204 1.69h-1.321v-3.342h1.005c.055-.093.167-.316.316-.669.149-.353.297-.835.428-1.467.148-.63.26-1.41.372-2.358.093-.947.148-2.06.13-3.36h5.691v7.835h1.208v3.36h.019zm-3.069-3.342V59.35h-2.101c-.056 1.615-.186 2.933-.391 3.955-.204 1.02-.409 1.764-.613 2.228h3.105zm13.353-.446h-2.919l-.726 2.098h-1.859l3.422-9.562h1.376l3.422 9.562h-1.953l-.763-2.098zm-2.454-1.504h2.045l-.706-2.117-.279-1.485h-.075l-.279 1.504-.706 2.098zm15.863-.371h-3.477v3.973h-1.86V57.68h1.86v3.862h3.477V57.68h1.86v9.506h-1.86v-3.973zm13.577-1.3l.111-1.225h-.074l-.633 1.28-3.552 5.218h-1.395V57.68h1.86v5.161l-.13 1.282h.074l.67-1.319 3.552-5.124h1.395v9.506h-1.86v-5.273h-.018zm13.594 0l.112-1.225h-.074l-.633 1.28-3.552 5.218h-1.395V57.68h1.86v5.161l-.13 1.282h.074l.67-1.319 3.552-5.124h1.395v9.506h-1.86v-5.273h-.019zm-2.659-6.591c.037.297.149.5.316.63.186.13.409.187.688.187.614 0 .949-.26 1.004-.799l1.507.223c-.093.576-.354.984-.781 1.244-.428.26-1.005.39-1.748.39-.372 0-.707-.019-1.023-.074a2.89 2.89 0 01-.8-.26c-.223-.13-.428-.279-.577-.502-.148-.204-.241-.464-.278-.78l1.692-.26z" fill="#fff"/></svg>