<svg width="314" height="54" fill="none" xmlns="http://www.w3.org/2000/svg"><path fill-rule="evenodd" clip-rule="evenodd" d="M44.886 36.955l1.053-1.874 3.757 2.1-1.053 1.875a24.63 24.63 0 01-9.07 9.227 24.77 24.77 0 01-12.146 3.39H2.333V26.654c.096-6.672 2.848-12.712 7.252-17.105A24.693 24.693 0 0127.08 2.328a24.71 24.71 0 0112.564 3.425 24.631 24.631 0 019.083 9.31l1.041 1.887-3.781 2.065-1.041-1.886a20.478 20.478 0 00-7.491-7.687A20.453 20.453 0 0027.08 6.625a20.344 20.344 0 00-14.432 5.968C8.95 16.28 6.665 21.366 6.665 26.988a20.242 20.242 0 005.983 14.395 20.365 20.365 0 0014.432 5.968c3.71 0 7.263-.99 10.327-2.793a20.223 20.223 0 007.479-7.603zm-19.65 5.133v-7.95h4.32v7.938h-4.32v.012zm18.082-21.725l-8.628 4.93-2.142-3.736 8.628-4.942 2.142 3.748zM12.732 15.84l9.62 5.67-2.189 3.7-9.621-5.67 2.19-3.7z" fill="#B1B1B1"/><path d="M10.482 34.305l15.916-9.334 1.089-.633 1.077.633 14.778 8.582-2.154 3.724-13.701-7.95-14.839 8.702-2.166-3.724zM25.25 19.838V9.334h4.32v10.504h-4.32z" fill="#B1B1B1"/><path d="M78.595 26.236c-.347.382-.706.657-1.1.836-.395.179-.874.262-1.425.262-.741 0-1.316-.155-1.735-.453-.419-.299-.694-.836-.837-1.6l-.515-2.9c-.096-.538-.24-.955-.407-1.254a1.582 1.582 0 00-.766-.68c-.335-.155-.801-.227-1.4-.227h-.263v4.846c0 .478.036.824.108 1.039a.695.695 0 00.395.442c.191.071.502.13.933.155v.382a58.52 58.52 0 00-3.004-.06c-1.232 0-2.19.024-2.872.06v-.382c.42-.024.73-.072.922-.155a.64.64 0 00.395-.442c.072-.215.107-.561.107-1.039V20.22h-.263c-.598 0-1.065.072-1.4.227a1.702 1.702 0 00-.766.68c-.167.299-.31.716-.407 1.254l-.514 2.9c-.144.764-.419 1.29-.838 1.6-.419.298-.993.453-1.735.453-.562 0-1.03-.083-1.424-.262a3.251 3.251 0 01-1.1-.836l.262-.227c.132.144.24.24.347.31a.81.81 0 00.395.12c.24 0 .431-.096.563-.298.131-.191.251-.55.347-1.075l.55-2.542c.204-.883.646-1.528 1.328-1.91.683-.382 1.64-.62 2.872-.692l-3.446-4.118c-.838-.979-1.759-1.588-2.776-1.827v-.358c.455.036 1.065.06 1.807.06.933 0 1.867-.024 2.8-.06v.358c-.443.024-.79.12-1.03.299-.239.167-.358.418-.358.728 0 .478.287 1.074.873 1.767l1.125 1.348c.539.621 1.005 1.063 1.412 1.337.407.275.862.418 1.376.43v-4.25c0-.477-.035-.823-.107-1.05a.695.695 0 00-.395-.441c-.192-.072-.503-.132-.934-.156v-.382c.683.036 1.64.06 2.872.06a58.52 58.52 0 003.004-.06v.382c-.419.024-.73.072-.921.156a.64.64 0 00-.395.441c-.072.215-.108.561-.108 1.05v4.25c.503-.012.97-.155 1.376-.43.407-.274.874-.716 1.412-1.337l1.125-1.348c.586-.693.874-1.29.874-1.767a.818.818 0 00-.371-.716c-.252-.18-.587-.275-1.017-.299v-.358c.909.036 1.842.06 2.8.06.73 0 1.34-.024 1.806-.06v.358c-1.005.227-1.926.836-2.776 1.827l-3.47 4.118c1.245.071 2.214.31 2.896.692.682.382 1.125 1.027 1.328 1.91l.55 2.542c.096.514.216.872.348 1.075.131.19.323.298.562.298a.76.76 0 00.371-.12c.108-.06.227-.166.371-.322l.263.227zm7.025-12.88c.765 0 1.412.108 1.938.323a6.284 6.284 0 011.556.907c.143.12.263.167.359.167.251 0 .419-.382.49-1.134h.443c-.048.86-.072 2.388-.072 4.596h-.442c-.12-.931-.264-1.647-.455-2.149-.192-.489-.515-.919-.97-1.289a3.307 3.307 0 00-1.1-.692 3.781 3.781 0 00-1.317-.239c-1.28 0-2.237.62-2.86 1.874-.622 1.242-.933 2.805-.933 4.667 0 1.85.323 3.39.97 4.632.645 1.241 1.615 1.862 2.895 1.862a3.68 3.68 0 001.28-.239 2.897 2.897 0 001.078-.692c.466-.358.801-.8.98-1.325.18-.537.324-1.313.432-2.34h.442c0 2.292.024 3.891.072 4.787h-.419c-.035-.406-.095-.693-.167-.86-.072-.167-.168-.25-.3-.25-.095 0-.239.047-.394.155-.575.406-1.113.716-1.64.919-.514.203-1.148.31-1.878.31-1.34 0-2.525-.274-3.53-.811a5.73 5.73 0 01-2.346-2.364c-.55-1.026-.838-2.268-.838-3.688 0-1.397.288-2.626.862-3.7.574-1.075 1.364-1.91 2.393-2.507 1.005-.62 2.166-.92 3.47-.92zm22.09 3.63c1.113 0 1.986.405 2.62 1.217.623.812.946 2.005.946 3.593 0 1.766-.383 3.14-1.137 4.106-.754.967-1.795 1.444-3.111 1.444-.694 0-1.269-.143-1.7-.441v1.73c0 .561.132.943.395 1.158.264.215.646.322 1.173.322v.394l-.455-.024c-1.292-.035-2.118-.06-2.477-.06s-1.184.025-2.477.06l-.455.024v-.394c.539 0 .922-.107 1.185-.322.251-.215.383-.597.383-1.158v-1.898c-.467.406-1.125.61-1.962.61-1.21 0-2.166-.43-2.896-1.29-.718-.86-1.09-2.148-1.09-3.855 0-1.707.36-3.008 1.09-3.88.718-.883 1.71-1.325 2.967-1.325.802 0 1.424.203 1.879.621v-1.934c0-.584-.084-1.002-.263-1.277-.18-.262-.491-.394-.958-.394v-.405c.395.035.814.06 1.281.06 1.065 0 1.962-.084 2.68-.263v4.38a2.78 2.78 0 011.065-.585 4.17 4.17 0 011.317-.215zm-6.247 9.644c.216 0 .431-.036.622-.095.204-.06.371-.144.491-.251v-8.26a1.586 1.586 0 00-.562-.37 1.709 1.709 0 00-.635-.12c-1.244 0-1.866 1.54-1.866 4.62 0 1.611.167 2.757.49 3.45.323.68.814 1.026 1.46 1.026zm4.835.191c.754 0 1.28-.406 1.603-1.206.323-.8.491-1.993.491-3.58 0-1.588-.144-2.698-.443-3.366-.299-.657-.754-.991-1.376-.991-.227 0-.455.036-.67.12a1.357 1.357 0 00-.563.345v8.368c.264.203.587.31.958.31zm8.675.382c-.813 0-1.424-.203-1.819-.62-.394-.418-.598-.968-.598-1.648 0-.573.144-1.038.443-1.42.299-.37.658-.657 1.089-.86a16.47 16.47 0 011.627-.644c.694-.24 1.209-.454 1.532-.657.323-.19.491-.465.491-.811v-1.48c0-.538-.12-.944-.371-1.242-.252-.298-.635-.442-1.149-.442-.61 0-1.077.155-1.388.454.359.131.634.322.825.573.192.25.3.549.3.895 0 .43-.144.776-.443 1.027-.287.25-.646.382-1.065.382-.443 0-.79-.144-1.029-.418-.24-.275-.359-.62-.359-1.039 0-.358.083-.656.251-.907.168-.25.431-.477.79-.692.347-.203.766-.358 1.268-.478a7.19 7.19 0 011.652-.167c.622 0 1.16.06 1.615.191a2.6 2.6 0 011.137.645c.275.274.467.62.562 1.026.096.406.144.955.144 1.648v5.168c0 .298.024.513.084.645.06.13.167.19.335.19.191 0 .419-.107.682-.322l.191.323c-.574.465-1.268.704-2.094.704-.694 0-1.185-.143-1.46-.418-.275-.274-.431-.656-.443-1.122-.634 1.003-1.567 1.516-2.8 1.516zm1.472-1.218c.491 0 .922-.262 1.293-.775v-3.892c-.156.251-.479.537-.97.836-.49.322-.873.633-1.125.955-.251.322-.382.776-.382 1.372 0 .514.107.908.323 1.146.215.24.502.358.861.358zm10.83-9a5.3 5.3 0 011.328.156c.419.095.766.238 1.041.417.335.203.587.454.766.764.18.31.275.645.275 1.015 0 .442-.143.812-.419 1.086-.275.287-.646.43-1.088.43-.443 0-.802-.132-1.065-.382-.264-.25-.395-.597-.395-1.027 0-.382.119-.704.359-.99a1.87 1.87 0 01.897-.573c-.096-.144-.251-.251-.467-.334a1.754 1.754 0 00-.67-.12c-.766 0-1.352.418-1.783 1.242-.431.823-.634 1.91-.634 3.258 0 1.349.239 2.328.718 2.925.479.596 1.089.895 1.807.895.431 0 .862-.12 1.304-.346.443-.227.838-.621 1.185-1.194l.323.12a4.684 4.684 0 01-1.328 2.112c-.634.585-1.448.883-2.453.883-1.305 0-2.37-.43-3.195-1.289-.826-.86-1.233-2.136-1.233-3.831 0-1.11.204-2.065.61-2.853.407-.788.97-1.373 1.676-1.779.718-.382 1.519-.585 2.441-.585zm16.047.68c-.443 0-.754.096-.945.3-.18.19-.276.548-.276 1.073v6.267c0 .513.096.871.276 1.074.179.191.502.299.945.299v.394a84.808 84.808 0 00-2.513-.072c-.383 0-1.209.024-2.477.072v-.394c.383 0 .646-.096.802-.299.155-.19.227-.549.227-1.074v-5.753l-3.614 6.111c.024.382.12.645.275.788.156.143.407.215.73.215v.394a71.314 71.314 0 00-2.357-.072c-.383 0-1.257.024-2.633.072v-.394c.455 0 .778-.096.958-.299.179-.19.263-.549.263-1.074v-6.266c0-.514-.084-.872-.263-1.075-.18-.19-.491-.298-.958-.298v-.394c1.317.048 2.154.072 2.513.072.431 0 1.257-.024 2.477-.072v.394c-.383 0-.646.095-.801.298-.156.191-.228.55-.228 1.075v5.92l3.638-6.135c-.012-.442-.096-.752-.251-.907-.156-.168-.419-.251-.766-.251v-.394c1.22.048 2.01.072 2.357.072.431 0 1.305-.024 2.633-.072v.406h-.012zm11.5 0c-.419 0-.706.096-.862.3-.155.19-.239.548-.239 1.073v6.267c0 .513.084.871.251 1.074.168.191.455.299.862.299v.394a78.07 78.07 0 00-2.442-.072c-.335 0-1.124.024-2.381.06a3.483 3.483 0 01-.395.024v-.394c.479 0 .826-.096 1.053-.299.216-.19.323-.549.323-1.074V19.05c0-.513-.071-.87-.227-1.074-.156-.19-.419-.298-.802-.298h-.167c-.228 0-.395.036-.503.12-.108.083-.179.214-.215.393-.036.18-.072.466-.12.86a69.83 69.83 0 01-.431 3.736c-.143.966-.359 1.826-.658 2.578-.55 1.313-1.28 1.97-2.214 1.97a1.99 1.99 0 01-1.28-.442c-.371-.299-.551-.729-.551-1.278 0-.477.144-.859.419-1.133.276-.275.647-.406 1.089-.406.431 0 .766.13 1.017.393.252.263.371.585.371.98 0 .68-.406 1.193-1.22 1.54a.794.794 0 00.251.035c.682 0 1.281-.585 1.771-1.743.275-.74.503-1.623.67-2.662.168-1.038.299-2.232.395-3.557.036-.5-.072-.859-.311-1.062-.251-.203-.646-.298-1.185-.298v-.394c.276.024.682.035 1.197.035l1.771-.023c.371 0 .814.012 1.352.035l1.089.024c.347 0 1.125-.024 2.346-.071v.358h-.024zm12.541 0c-.443 0-.754.096-.946.3-.179.19-.275.548-.275 1.073v6.267c0 .513.096.871.275 1.074.18.191.503.299.946.299v.394A84.899 84.899 0 00164.85 27c-.383 0-1.209.024-2.477.072v-.394c.382 0 .646-.096.801-.299.156-.19.228-.549.228-1.074v-5.753l-3.614 6.111c.024.382.119.645.275.788.156.143.407.215.73.215v.394a71.468 71.468 0 00-2.357-.072c-.383 0-1.257.024-2.633.072v-.394c.455 0 .778-.096.957-.299.18-.19.263-.549.263-1.074v-6.266c0-.514-.083-.872-.263-1.075-.179-.19-.49-.298-.957-.298v-.394c1.316.048 2.154.072 2.513.072.431 0 1.256-.024 2.477-.072v.394c-.383 0-.646.095-.802.298-.155.191-.227.55-.227 1.075v5.92l3.638-6.135c-.012-.442-.096-.752-.252-.907-.155-.168-.419-.251-.766-.251v-.394c1.221.048 2.011.072 2.358.072.431 0 1.304-.024 2.632-.072v.406h-.011zm11.057-.393c-.084.99-.132 1.874-.132 2.662 0 .537.024.967.06 1.289h-.443c-.419-2.375-1.268-3.57-2.549-3.57h-.622v7.461c0 .585.143.99.443 1.218.299.226.742.346 1.34.346v.394l-.539-.024c-1.376-.036-2.237-.06-2.608-.06s-1.257.024-2.669.06l-.514.024v-.394c.622 0 1.077-.096 1.364-.287.287-.19.431-.573.431-1.157v-7.58h-.706c-.587 0-1.077.274-1.496.812-.407.549-.73 1.456-.958 2.757h-.442c.036-.299.059-.74.059-1.29 0-.763-.047-1.646-.131-2.661h2.022l1.161.024a61.69 61.69 0 001.843.036c.466 0 1.101-.012 1.879-.036l1.184-.024h2.023zm12.504.394c-.442 0-.753.095-.945.298-.179.191-.275.55-.275 1.075v6.266c0 .513.096.871.275 1.074.18.191.503.299.945.299v.394a84.772 84.772 0 00-2.512-.072c-.383 0-1.209.024-2.478.072v-.394c.383 0 .647-.096.802-.299.156-.19.228-.549.228-1.074v-5.753l-3.614 6.111c.024.382.119.645.275.788.156.143.407.215.73.215v.394a71.468 71.468 0 00-2.357-.072c-.383 0-1.257.024-2.633.072v-.394c.455 0 .778-.096.957-.299.18-.19.263-.549.263-1.074v-6.266c0-.514-.083-.872-.263-1.075-.179-.19-.49-.298-.957-.298v-.394c1.316.048 2.154.072 2.513.072.431 0 1.256-.024 2.477-.072v.394c-.383 0-.646.095-.802.298-.155.191-.227.55-.227 1.075v5.92l3.638-6.135c-.012-.442-.096-.752-.252-.907-.155-.168-.419-.251-.766-.251v-.394c1.221.048 2.011.072 2.358.072.431 0 1.304-.024 2.632-.072v.406h-.012zm18.501-.012c-.323.012-.551.06-.718.131a.633.633 0 00-.335.418c-.06.203-.096.501-.096.907v6.1c0 .405.036.704.096.907a.633.633 0 00.335.418c.155.071.395.119.718.13v.395l-.443-.024c-1.065-.036-1.735-.06-2.022-.06-.276 0-1.03.024-2.25.06l-.443.024v-.394c.347-.012.598-.06.778-.131.179-.072.299-.215.371-.418.072-.203.108-.502.108-.907v-6.852l-3.638 8.81h-.299l-3.638-8.702v5.908c0 .812.119 1.397.347 1.743.239.358.706.549 1.424.573v.382a29.627 29.627 0 00-1.963-.06c-.646 0-1.16.024-1.543.06v-.382c.514-.024.873-.227 1.041-.621.179-.382.263-.99.263-1.814v-4.99c0-.477-.036-.823-.096-1.05a.646.646 0 00-.359-.442c-.179-.071-.466-.131-.861-.155v-.382c.383.036.897.06 1.543.06.982 0 1.831-.024 2.549-.06l2.585 6.47 2.633-6.422c.323.012.825.024 1.543.024.874 0 1.652-.024 2.346-.072v.418h.024zm6.581 8.117c1.041 0 1.879-.502 2.513-1.516l.347.12a4.465 4.465 0 01-1.364 2.1c-.658.573-1.472.86-2.441.86-1.34 0-2.417-.43-3.207-1.278-.79-.86-1.185-2.113-1.185-3.784 0-1.707.431-3.02 1.281-3.915.849-.907 1.974-1.36 3.386-1.36 2.381 0 3.578 1.408 3.578 4.213h-5.349c-.012.19-.024.49-.024.895 0 .836.12 1.528.347 2.089.239.561.539.967.91 1.218a2.23 2.23 0 001.208.358zm-.79-8.392c-.454 0-.837.287-1.136.848-.3.56-.491 1.432-.563 2.614h2.992c.024-1.003-.072-1.826-.299-2.483-.216-.644-.551-.979-.994-.979zm16 .287c-.443 0-.754.095-.946.298-.179.191-.275.55-.275 1.075v6.266c0 .513.096.871.275 1.074.18.191.503.299.946.299v.394a84.899 84.899 0 00-2.513-.072c-.383 0-1.209.024-2.477.072v-.394c.382 0 .646-.096.801-.299.156-.19.228-.549.228-1.074v-3.103h-3.291v3.091c0 .513.072.872.227 1.074.156.191.419.299.802.299v.394a71.468 71.468 0 00-2.357-.072c-.383 0-1.257.024-2.633.072v-.394c.455 0 .778-.096.957-.299.18-.19.264-.549.264-1.074v-6.266c0-.514-.084-.872-.264-1.075-.179-.19-.49-.298-.957-.298v-.394c1.316.048 2.154.072 2.513.072.431 0 1.256-.024 2.477-.072v.394c-.383 0-.646.095-.802.298-.155.191-.227.55-.227 1.075v2.793h3.291v-2.793c0-.514-.072-.872-.228-1.075-.155-.19-.419-.298-.801-.298v-.394c1.22.048 2.01.072 2.357.072.431 0 1.304-.024 2.621-.072v.406h.012zm6.509 8.105c1.041 0 1.879-.502 2.513-1.516l.347.12a4.465 4.465 0 01-1.364 2.1c-.658.573-1.472.86-2.441.86-1.34 0-2.417-.43-3.207-1.278-.79-.86-1.185-2.113-1.185-3.784 0-1.707.431-3.02 1.281-3.915.849-.907 1.974-1.36 3.386-1.36 2.382 0 3.578 1.408 3.578 4.213h-5.349c-.012.19-.024.49-.024.895 0 .836.12 1.528.347 2.089.24.561.539.967.91 1.218a2.23 2.23 0 001.208.358zm-.789-8.392c-.455 0-.838.287-1.137.848-.299.56-.491 1.432-.563 2.614h2.992c.024-1.003-.072-1.826-.299-2.483-.216-.644-.551-.979-.993-.979zm13.474 9.287a22.43 22.43 0 00-.132 2.208c0 .501.024.895.06 1.182h-.443c-.131-.764-.287-1.361-.49-1.79-.192-.442-.467-.753-.814-.944-.347-.19-.802-.286-1.364-.286-.635 0-1.113.012-1.448.024l-2.19.024c-.575 0-1.029.095-1.376.274-.347.18-.611.49-.814.92-.191.429-.359 1.026-.491 1.79h-.442a9.54 9.54 0 00.059-1.182c0-.633-.047-1.373-.131-2.208h.359c.395 0 .742-.131 1.029-.394a2.76 2.76 0 00.682-1.003c.323-.74.55-1.587.682-2.554.144-.967.263-2.196.383-3.677.036-.5-.072-.859-.311-1.062-.251-.203-.646-.298-1.185-.298v-.394a16.449 16.449 0 001.987.012l1.184-.024c.371 0 .814.012 1.353.036.454.023.801.035 1.041.035.359 0 1.136-.023 2.357-.071v.394c-.419 0-.706.095-.862.286-.155.191-.239.55-.239 1.063v6.29c0 .537.108.895.323 1.086.228.167.634.263 1.233.263zm-4.284-7.628c0-.513-.072-.87-.228-1.074-.155-.19-.418-.298-.801-.298h-.168c-.383 0-.622.083-.742.262-.119.18-.191.55-.251 1.099-.144 1.611-.275 2.876-.407 3.807a9.888 9.888 0 01-.67 2.495c-.275.609-.622 1.05-1.041 1.325h3.063c.467 0 .802-.096.982-.299.179-.19.275-.549.275-1.074V19.04h-.012zm20.044 6.589c.143.358.287.61.442.764.156.156.383.251.682.287v.394a9.397 9.397 0 01-1.376.119c-.754 0-1.328-.143-1.735-.43-.407-.286-.706-.764-.897-1.432a20.07 20.07 0 01-.168-.657 5.829 5.829 0 00-.347-1.002 3.368 3.368 0 00-.479-.8c-.215-.262-.466-.454-.753-.549a3.066 3.066 0 00-1.054-.131v3.115c0 .513.072.872.228 1.074.155.191.419.299.802.299v.394a78.114 78.114 0 00-2.418-.072c-.371 0-1.16.024-2.381.072v-.394c.383 0 .646-.096.802-.299.155-.19.227-.549.227-1.074V22.19a3.107 3.107 0 00-1.041.131c-.299.107-.55.287-.766.55-.407.5-.742 1.324-.993 2.446-.156.668-.443 1.146-.862 1.432-.43.287-1.017.43-1.759.43-.43 0-.885-.036-1.376-.12v-.393c.299-.036.539-.131.682-.287.156-.155.299-.405.443-.764.132-.322.263-.68.395-1.098.144-.405.263-.728.359-.979.096-.25.227-.465.383-.656.562-.716 1.496-1.086 2.812-1.086.251 0 .443.012.55.024-.37-.167-.646-.394-.837-.705-.192-.298-.371-.716-.539-1.253l-.131-.441c-.144-.49-.252-.86-.347-1.087a1.567 1.567 0 00-.383-.573c-.156-.143-.383-.238-.658-.274.227.131.394.286.49.465.096.18.156.382.156.585 0 .454-.156.8-.467 1.05a1.72 1.72 0 01-1.077.359c-.419 0-.766-.132-1.029-.394-.263-.263-.395-.62-.395-1.063 0-.453.144-.823.443-1.086.299-.274.754-.406 1.364-.406.491 0 .886.108 1.185.31.299.204.514.478.658.812.143.335.311.812.49 1.433.156.549.3.955.443 1.241.144.287.359.513.622.692.276.18.659.299 1.173.359v-2.806c0-.513-.084-.87-.251-1.074-.168-.19-.467-.298-.898-.298v-.394c1.317.048 2.178.072 2.573.072.419 0 1.233-.024 2.453-.072v.394c-.418 0-.718.095-.885.298-.168.191-.251.55-.251 1.075v2.793c.49-.048.873-.155 1.148-.323.276-.167.491-.394.635-.68.155-.287.311-.716.478-1.277.18-.633.335-1.11.491-1.444a1.95 1.95 0 01.646-.812c.287-.203.67-.31 1.173-.31.622 0 1.077.13 1.376.405.287.275.443.633.443 1.087 0 .441-.132.8-.395 1.062-.264.262-.611.394-1.041.394a1.72 1.72 0 01-1.077-.358c-.311-.24-.467-.585-.467-1.05 0-.204.06-.395.168-.586.107-.179.275-.334.502-.465-.275.036-.502.131-.67.286a1.58 1.58 0 00-.395.585c-.096.239-.215.597-.371 1.086l-.12.418c-.167.55-.347.967-.538 1.265-.191.299-.467.526-.838.693.144-.012.347-.024.611-.024 1.28 0 2.201.358 2.764 1.086.251.346.502.895.766 1.671.203.537.323.895.407 1.086zm14.982-7.973c-.324.012-.551.06-.718.131a.633.633 0 00-.335.418c-.06.203-.096.501-.096.907v6.1c0 .405.036.704.096.907a.633.633 0 00.335.418c.155.071.394.119.718.13v.395l-.443-.024c-1.065-.036-1.735-.06-2.023-.06-.275 0-1.029.024-2.249.06l-.443.024v-.394c.347-.012.598-.06.778-.131.179-.072.299-.215.371-.418.072-.203.108-.502.108-.907v-6.852l-3.638 8.81h-.299l-3.638-8.702v5.908c0 .812.119 1.397.347 1.743.239.358.706.549 1.424.573v.382a29.627 29.627 0 00-1.963-.06c-.646 0-1.16.024-1.543.06v-.382c.514-.024.873-.227 1.041-.621.179-.382.263-.99.263-1.814v-4.99c0-.477-.036-.823-.096-1.05a.646.646 0 00-.359-.442c-.179-.071-.466-.131-.861-.155v-.382c.383.036.897.06 1.543.06.982 0 1.831-.024 2.549-.06l2.585 6.47 2.633-6.422c.311.012.825.024 1.543.024.874 0 1.652-.024 2.346-.072v.418h.024zm6.581 8.117c1.041 0 1.879-.502 2.513-1.516l.347.12a4.466 4.466 0 01-1.364 2.1c-.658.573-1.472.86-2.441.86-1.34 0-2.417-.43-3.207-1.278-.79-.86-1.185-2.113-1.185-3.784 0-1.707.431-3.02 1.281-3.915.849-.907 1.974-1.36 3.386-1.36 2.381 0 3.578 1.408 3.578 4.213h-5.349c-.012.19-.024.49-.024.895 0 .836.12 1.528.347 2.089.239.561.539.967.91 1.218.37.238.777.358 1.208.358zm-.802-8.392c-.454 0-.837.287-1.136.848-.3.56-.491 1.432-.563 2.614h2.992c.024-1.003-.072-1.826-.299-2.483-.216-.644-.551-.979-.994-.979zm16.012.287c-.443 0-.754.095-.946.298-.179.191-.275.55-.275 1.075v6.266c0 .513.096.872.275 1.074.18.191.503.299.946.299v.394A84.773 84.773 0 00300.43 27c-.383 0-1.209.024-2.478.072v-.394c.383 0 .647-.096.802-.299.156-.19.228-.549.228-1.074v-3.103h-3.291v3.091c0 .513.072.872.227 1.074.156.191.419.299.802.299v.394a71.468 71.468 0 00-2.357-.072c-.383 0-1.257.024-2.633.072v-.394c.455 0 .778-.096.957-.299.18-.19.264-.549.264-1.074v-6.266c0-.514-.084-.872-.264-1.075-.179-.19-.49-.298-.957-.298v-.394c1.316.048 2.154.072 2.513.072.431 0 1.256-.024 2.477-.072v.394c-.383 0-.646.095-.802.298-.155.191-.227.55-.227 1.075v2.793h3.291v-2.793c0-.514-.072-.872-.228-1.075-.155-.19-.419-.298-.802-.298v-.394c1.221.048 2.011.072 2.358.072.431 0 1.304-.024 2.621-.072v.406h.012zM314 17.272a31.97 31.97 0 00-.132 2.662c0 .537.024.967.06 1.289h-.443c-.419-2.375-1.268-3.57-2.549-3.57h-.622v7.461c0 .585.143.99.443 1.218.299.226.742.346 1.34.346v.394l-.539-.024c-1.376-.036-2.237-.06-2.608-.06s-1.257.024-2.669.06l-.514.024v-.394c.622 0 1.077-.096 1.364-.287.287-.19.431-.573.431-1.157v-7.58h-.706c-.587 0-1.077.274-1.496.812-.407.549-.73 1.456-.958 2.757h-.442c.036-.299.059-.74.059-1.29 0-.763-.047-1.646-.131-2.661h2.022l1.161.024a61.69 61.69 0 001.843.036c.466 0 1.101-.012 1.879-.036l1.184-.024H314zM60.538 40.393h-.311v2.602H59.03v-6.112h1.197v2.71l.275-.12 1.687-2.578h1.365l-1.783 2.567-.467.334.49.346 2.035 2.865h-1.484l-1.807-2.614zm6.414-.454c0-1.014.227-1.802.67-2.351.455-.55 1.09-.824 1.927-.824.443 0 .813.072 1.149.227.323.155.598.37.813.644a2.8 2.8 0 01.479 1.003c.108.394.156.824.156 1.301 0 1.015-.228 1.802-.683 2.352-.454.549-1.088.823-1.914.823-.443 0-.826-.072-1.149-.227a2.268 2.268 0 01-.814-.644 2.793 2.793 0 01-.478-1.003 4.912 4.912 0 01-.156-1.3zm1.257 0c0 .31.023.597.083.847a2.1 2.1 0 00.24.669c.107.19.25.334.419.442.167.107.37.155.598.155.43 0 .754-.167.993-.502.227-.334.347-.87.347-1.61 0-.3-.024-.574-.072-.825a2.582 2.582 0 00-.227-.668 1.252 1.252 0 00-.407-.454 1.122 1.122 0 00-.622-.167c-.431 0-.754.167-.994.514-.25.346-.358.87-.358 1.6zm12.457-.107l.131-1.218h-.048l-.37.979-1.305 2.28h-.383l-1.376-2.28-.383-.967h-.048l.18 1.206v3.175h-1.137v-6.112h1.089l1.64 2.793.286.693h.036l.264-.717 1.543-2.769h1.09v6.112h-1.197v-3.175h-.012zm8.508-1.874h-2.142v5.037h-1.197v-6.112h4.535v6.112h-1.196v-5.037zm8.364 0h-1.304a43.64 43.64 0 01-.084 1.504c-.024.453-.072.859-.12 1.229-.047.358-.12.68-.19.967a3.42 3.42 0 01-.312.728 1.96 1.96 0 01-.275.334 1.9 1.9 0 01-.323.215 1.715 1.715 0 01-.323.107 1.36 1.36 0 01-.3.036 1.305 1.305 0 01-.598-.131l.132-1.027c.036.012.072.024.107.024.036 0 .072.012.108.012.096 0 .18-.024.275-.071a.493.493 0 00.228-.24c.084-.13.167-.31.227-.56.06-.25.12-.561.168-.943.047-.382.083-.848.12-1.373.023-.537.047-1.157.06-1.862h3.613v6.112H97.55v-5.061h-.012zm5.17-1.063h3.626v1.063h-2.429v1.42h2.213v1.062h-2.213v1.492h2.477v1.063h-3.674v-6.1zm8.987 3.498h-.311v2.602h-1.197v-6.112h1.197v2.71l.275-.12 1.687-2.578h1.364l-1.783 2.567-.466.334.49.346 2.034 2.865h-1.471l-1.819-2.614zm10.746 2.351a1.887 1.887 0 01-.718.287c-.288.06-.587.083-.886.083a3.28 3.28 0 01-1.041-.167 2.177 2.177 0 01-.874-.55 2.623 2.623 0 01-.598-.99 4.417 4.417 0 01-.227-1.468c0-.597.084-1.098.251-1.504a2.81 2.81 0 01.646-.979c.263-.25.563-.43.886-.537.323-.107.658-.167.981-.167.347 0 .646.024.886.072.239.047.442.107.598.167l-.239 1.014a2.09 2.09 0 00-.479-.143 5.039 5.039 0 00-.67-.048c-.479 0-.874.167-1.173.514-.299.346-.443.871-.443 1.6 0 .31.036.596.108.858.072.263.179.478.323.669.144.179.323.322.539.43.215.107.454.155.741.155.264 0 .479-.024.671-.084.179-.047.335-.12.466-.203l.252.991zm7.096-2.304h-2.238v2.555h-1.197v-6.112h1.197v2.483h2.238v-2.483h1.196v6.112h-1.196V40.44zm4.99-.5c0-1.015.227-1.803.67-2.352.455-.55 1.089-.824 1.926-.824.443 0 .814.072 1.149.227.323.155.599.37.814.644.215.275.371.61.479 1.003.107.394.155.824.155 1.301 0 1.015-.227 1.802-.682 2.352-.455.549-1.089.823-1.915.823-.442 0-.825-.072-1.148-.227a2.267 2.267 0 01-.814-.644 2.805 2.805 0 01-.479-1.003 4.941 4.941 0 01-.155-1.3zm1.256 0c0 .31.024.596.084.846.048.263.132.478.239.669.108.19.252.334.419.442.168.107.371.155.598.155.431 0 .754-.167.994-.502.227-.334.347-.87.347-1.61 0-.3-.024-.574-.072-.825a2.578 2.578 0 00-.228-.668 1.248 1.248 0 00-.406-.454 1.125 1.125 0 00-.623-.167c-.43 0-.754.167-.993.514-.239.346-.359.87-.359 1.6zm7.707-3.045h3.625v1.063h-2.429v1.42h2.214v1.062h-2.214v1.492h2.477v1.063h-3.673v-6.1zm13.929 3.044c0-1.014.227-1.802.67-2.351.454-.55 1.089-.824 1.926-.824.443 0 .814.072 1.149.227.323.155.598.37.814.644.215.275.371.61.478 1.003.108.394.156.824.156 1.301 0 1.015-.227 1.802-.682 2.352-.455.549-1.089.823-1.915.823-.442 0-.825-.072-1.149-.227a2.263 2.263 0 01-.813-.644 2.788 2.788 0 01-.479-1.003 5.45 5.45 0 01-.155-1.3zm1.256 0c0 .31.024.597.084.847.048.263.131.478.239.669.108.19.251.334.419.442.167.107.371.155.598.155.431 0 .754-.167.993-.502.228-.334.348-.87.348-1.61 0-.3-.024-.574-.072-.825a2.578 2.578 0 00-.228-.668 1.242 1.242 0 00-.407-.454 1.119 1.119 0 00-.622-.167c-.431 0-.754.167-.993.514-.239.346-.359.87-.359 1.6zm7.718-3.044h3.77v1.063h-2.573v1.277c.096-.012.215-.036.359-.048.144-.012.287-.024.419-.024.323 0 .622.036.897.096.276.06.503.167.706.322.192.143.347.346.455.585.108.239.168.537.168.883s-.06.645-.168.895c-.12.251-.275.466-.491.633a2.188 2.188 0 01-.765.382 3.76 3.76 0 01-1.006.131c-.095 0-.227 0-.371-.012-.143 0-.311-.012-.466-.024a6.191 6.191 0 01-.491-.047 2.3 2.3 0 01-.443-.072v-6.04zm1.855 5.18c.156 0 .287-.023.419-.059a1.04 1.04 0 00.347-.167.84.84 0 00.239-.298.969.969 0 00.084-.442c0-.203-.036-.37-.096-.502a.784.784 0 00-.263-.298.983.983 0 00-.383-.143 2.81 2.81 0 00-.455-.036c-.083 0-.179.012-.311.024a2.047 2.047 0 00-.251.036v1.826c.06.012.168.024.287.036.144.024.276.024.383.024zm10.196.67a1.887 1.887 0 01-.718.286c-.288.06-.587.083-.886.083a3.28 3.28 0 01-1.041-.167 2.177 2.177 0 01-.874-.55 2.623 2.623 0 01-.598-.99 4.417 4.417 0 01-.227-1.468c0-.597.084-1.098.251-1.504a2.81 2.81 0 01.646-.979c.264-.25.563-.43.886-.537.323-.107.658-.167.981-.167.347 0 .646.024.886.072.239.047.442.107.598.167l-.239 1.014a2.09 2.09 0 00-.479-.143 5.039 5.039 0 00-.67-.048c-.479 0-.874.167-1.173.514-.299.346-.443.871-.443 1.6 0 .31.036.596.108.858.072.263.18.478.323.669.144.179.323.322.539.43.215.107.454.155.742.155.263 0 .478-.024.67-.084.179-.047.335-.12.466-.203l.252.991zm6.94-4.787h-1.304a43.68 43.68 0 01-.084 1.504c-.024.453-.072.859-.12 1.229-.047.358-.119.68-.191.967a3.467 3.467 0 01-.311.728c-.084.131-.18.239-.275.334a1.903 1.903 0 01-.324.215 1.69 1.69 0 01-.323.107 1.35 1.35 0 01-.299.036 1.308 1.308 0 01-.598-.131l.132-1.027a.34.34 0 00.107.024c.036 0 .072.012.108.012a.591.591 0 00.275-.071.494.494 0 00.228-.24 1.83 1.83 0 00.227-.56c.06-.25.12-.561.167-.943.048-.382.084-.848.12-1.373a66.28 66.28 0 00.06-1.862h3.614v6.112h-1.197v-5.061h-.012zm7.216 1.623l.179.8h.048l.144-.824.921-2.674h1.233l-1.628 4.226c-.131.334-.251.62-.371.86a3.565 3.565 0 01-.382.608 1.448 1.448 0 01-.455.358 1.34 1.34 0 01-.598.12 2.46 2.46 0 01-.467-.036 1.341 1.341 0 01-.395-.167l.311-.967a.96.96 0 00.275.095c.084.012.168.012.264.012.275 0 .466-.215.574-.645l-2.286-4.452h1.412l1.221 2.686zm8.113-2.686h1.137v2.71l.311-.12 1.269-2.59h1.352l-1.424 2.674-.407.298.479.358 1.603 2.77h-1.448l-1.412-2.65h-.335v2.65h-1.137v-2.758l-.311.12-1.412 2.638h-1.4l1.604-2.674.466-.346-.455-.322-1.495-2.77h1.388l1.268 2.602h.347v-2.59h.012zm11.285 2.71l.071-.788h-.047l-.407.824-2.286 3.354h-.897v-6.112h1.196v3.319l-.084.823h.048l.431-.847 2.286-3.295h.897v6.112h-1.196v-3.39h-.012zm9.298-1.29c0 .156-.024.3-.06.454a1.105 1.105 0 01-.192.418 1.48 1.48 0 01-.335.334 1.592 1.592 0 01-.502.215v.048c.179.024.335.083.502.143.156.072.287.167.407.287.12.119.203.274.275.441.072.18.096.382.096.62 0 .311-.072.586-.203.813a1.62 1.62 0 01-.539.56 2.585 2.585 0 01-.766.323 3.595 3.595 0 01-.885.107h-.383c-.156 0-.323 0-.503-.012l-.538-.035a3.164 3.164 0 01-.503-.084v-6.016c.108-.012.239-.036.383-.048.144-.012.299-.036.455-.047.167-.012.335-.024.502-.024.168 0 .347-.012.515-.012.287 0 .562.024.838.06.275.047.514.119.73.226.215.108.382.263.514.466.12.203.192.453.192.764zm-2.19 3.76c.143 0 .287-.011.418-.047a1.22 1.22 0 00.359-.155.788.788 0 00.252-.275.797.797 0 00.095-.394.847.847 0 00-.107-.453.736.736 0 00-.287-.25 1.363 1.363 0 00-.407-.12 5.523 5.523 0 00-.443-.024h-.622v1.67a.321.321 0 00.131.025c.06 0 .132.012.204.012.072 0 .143 0 .227.012h.18zm-.371-2.625c.083 0 .179 0 .287-.012.108 0 .191-.012.263-.024a1.58 1.58 0 00.575-.31.714.714 0 00.239-.55.705.705 0 00-.084-.37.732.732 0 00-.227-.238.959.959 0 00-.323-.12 1.991 1.991 0 00-.383-.035c-.156 0-.287 0-.419.011-.132.012-.227.012-.299.024v1.612h.371v.012zm9.537 2.196h-1.879l-.466 1.349h-1.197l2.202-6.148h.885l2.202 6.148h-1.256l-.491-1.35zm-1.568-.967h1.317l-.455-1.36-.18-.956h-.047l-.18.967-.455 1.35zm10.208-.239h-2.238v2.555h-1.197v-6.112h1.197v2.483h2.238v-2.483h1.196v6.112h-1.196V40.44zm8.735-.835l.072-.788h-.048l-.407.824-2.285 3.354h-.898v-6.112h1.197v3.319l-.084.823h.048l.431-.847 2.285-3.295h.898v6.112h-1.197v-3.39h-.012zm5.182-2.71h3.626v1.063h-2.43v1.42h2.214v1.062h-2.214v1.492h2.477v1.063h-3.673v-6.1zm14.635 3.39v-.93h.634c.084 0 .156-.013.227-.013.072-.012.132-.024.18-.036a1.25 1.25 0 00.526-.25.607.607 0 00.216-.49c0-.274-.084-.465-.264-.573-.179-.107-.406-.155-.706-.155a2.38 2.38 0 00-.729.108 2.54 2.54 0 00-.515.203l-.311-1.015c.06-.036.155-.072.275-.107.12-.036.251-.084.407-.12a5.34 5.34 0 01.503-.095 4.132 4.132 0 011.304.035c.239.048.467.132.658.24.191.119.347.274.467.465.119.19.179.441.179.74 0 .298-.084.585-.239.835-.156.251-.419.442-.778.561v.048c.383.072.67.239.886.49.215.25.323.584.323 1.002a1.678 1.678 0 01-.73 1.432 2.175 2.175 0 01-.754.335 3.577 3.577 0 01-.874.107c-.383 0-.73-.036-1.053-.095a2.95 2.95 0 01-.73-.227l.311-1.039a3.1 3.1 0 00.575.191c.251.072.55.096.897.096.132 0 .264-.012.395-.048a1.21 1.21 0 00.359-.155.72.72 0 00.251-.287.892.892 0 00.096-.417.713.713 0 00-.311-.62c-.203-.144-.574-.216-1.101-.228-.072 0-.12-.012-.155-.012h-.419v.024zm12.361 3.796h-.85l-.131-1.086h-3.937l-.132 1.086h-.849v-2.149h.646a3.88 3.88 0 00.203-.43c.096-.226.192-.536.275-.942.096-.406.168-.907.24-1.516.06-.609.096-1.325.084-2.16h3.661v5.036h.778v2.161h.012zm-1.974-2.149v-3.974h-1.353c-.035 1.038-.119 1.886-.251 2.542-.132.657-.263 1.134-.395 1.432h1.999zm8.592-.286h-1.879l-.467 1.349H280.9l2.202-6.148h.886l2.202 6.148h-1.257l-.49-1.35zm-1.58-.967h1.316l-.454-1.36-.18-.956h-.048l-.179.967-.455 1.35zm10.207-.239h-2.237v2.555h-1.197v-6.112h1.197v2.483h2.237v-2.483h1.197v6.112h-1.197V40.44zm8.736-.835l.072-.788h-.048l-.407.824-2.286 3.354h-.897v-6.112h1.197v3.319l-.084.823h.048l.43-.847 2.286-3.295h.898v6.112h-1.197v-3.39h-.012zm8.747 0l.072-.788h-.048l-.407.824-2.285 3.354h-.898v-6.112h1.197v3.319l-.084.823h.048l.431-.847 2.286-3.295h.897v6.112h-1.197v-3.39h-.012zm-1.711-4.238c.024.191.096.323.204.406.119.084.263.12.442.12.395 0 .611-.168.647-.514l.969.144c-.06.37-.228.632-.503.8-.275.166-.646.25-1.125.25-.239 0-.454-.012-.658-.048a1.854 1.854 0 01-.514-.167 1.057 1.057 0 01-.371-.322 1.042 1.042 0 01-.18-.502l1.089-.167z" fill="#fff"/></svg>