<svg width="48" height="50" viewBox="0 0 48 50" fill="none" xmlns="http://www.w3.org/2000/svg">
<path fill-rule="evenodd" clip-rule="evenodd" d="M42.8858 34.955L43.9388 33.0809L47.6963 35.1817L46.6432 37.0558C44.4653 40.947 41.3062 44.0982 37.5726 46.2825C33.9348 48.4072 29.7585 49.6128 25.4267 49.6725H25.0797H0.333008V25V24.6539C0.42874 17.9815 3.18103 11.9417 7.58469 7.54912C12.0601 3.08493 18.2468 0.327637 25.0797 0.327637C29.579 0.327637 33.8989 1.54514 37.6444 3.75337C41.3899 5.94965 44.5491 9.13665 46.727 13.0637L47.7681 14.9497L43.9867 17.0146L42.9456 15.1287C41.1506 11.8939 38.5419 9.26795 35.4546 7.44169C32.3672 5.62737 28.8012 4.62472 25.0797 4.62472C19.4434 4.62472 14.3338 6.90456 10.6481 10.5929C6.95046 14.2812 4.66487 19.3661 4.66487 24.9881C4.66487 30.6101 6.95046 35.7069 10.6481 39.3833C14.3457 43.0717 19.4434 45.3515 25.0797 45.3515C28.7893 45.3515 32.3433 44.3608 35.4067 42.5584C38.4701 40.7799 41.0788 38.1778 42.8858 34.955ZM23.2368 40.0876V32.138H27.5567V40.0756H23.2368V40.0876ZM41.3181 18.3634L32.6903 23.2932L30.5483 19.5571L39.1762 14.6154L41.3181 18.3634ZM10.7319 13.8396L20.3529 19.5093L18.163 23.2096L8.542 17.5398L10.7319 13.8396Z" fill="#B1B1B1"/>
<path d="M8.48242 32.305L24.3978 22.9708L25.4868 22.3382L26.5637 22.9708L41.3423 31.5531L39.1884 35.2772L25.4868 27.3276L10.6484 36.0292L8.48242 32.305ZM23.249 17.8382V7.33423H27.5689V17.8382H23.249Z" fill="#B1B1B1"/>
</svg>
