<svg width="680" height="707" fill="none" xmlns="http://www.w3.org/2000/svg"><path d="M625.156 470.641l52.09 29.123-14.597 25.977-.001.002c-31.114 55.592-76.249 100.614-129.592 131.824-51.974 30.355-111.64 47.579-173.525 48.433H1V348.548c1.37-95.327 40.69-181.615 103.606-244.372C168.549 40.394 256.939 1 354.564 1c64.284 0 126.004 17.395 179.517 48.944l.002.002c53.512 31.378 98.647 76.911 129.764 133.018l14.43 26.14-52.424 28.628-14.435-26.149-.001-.002c-25.807-46.506-63.311-84.259-107.695-110.513l-.002-.002c-44.387-26.084-95.654-40.498-149.156-40.498-81.029 0-154.49 32.776-207.478 85.802-53.159 53.025-86.02 126.131-86.02 206.959 0 80.827 32.86 154.105 86.021 206.96 53.158 53.024 126.448 85.801 207.477 85.801 53.327 0 104.423-14.241 148.467-40.155 44.044-25.57 81.548-62.982 107.526-109.315l14.599-25.979zM329.16 568.499V456.77h59.894v111.729H329.16zm227.003-362.422l29.697 51.963-121.882 69.64-29.695-51.795 121.88-69.808zm-437.176 40.182l30.357-51.295 136.125 80.219-30.357 51.296-136.125-80.22z" stroke="#fff" stroke-opacity=".08" stroke-width="2"/><path d="M375.322 325.291l210.88 122.463-29.86 51.628-195.447-113.398-.505-.293-.503.296-211.735 124.166-30.027-51.63 227.168-133.232.004-.002 15.093-8.768 14.927 8.768.005.002zm-45.99-75.403V101.389h59.894v148.499h-59.894z" stroke="#fff" stroke-opacity=".08" stroke-width="2"/></svg>