<svg width="51" height="62" fill="none" xmlns="http://www.w3.org/2000/svg"><path d="M15.615 26.417c0-5.46 4.426-9.886 9.885-9.886 5.46 0 9.886 4.426 9.886 9.886 0 5.46-4.426 9.885-9.886 9.885-5.46 0-9.885-4.426-9.885-9.885z" fill="url(#paint0_linear_1451_82)"/><path fill-rule="evenodd" clip-rule="evenodd" d="M.478 23.002C1.523 10.322 12.12.562 24.843.562h1.314c12.724 0 23.32 9.76 24.366 22.44a26.441 26.441 0 01-5.883 18.91l-14.579 17.83c-2.357 2.882-6.764 2.882-9.122 0L6.361 41.912a26.442 26.442 0 01-5.883-18.91zM25.5 11.97c-7.98 0-14.448 6.468-14.448 14.448 0 7.979 6.469 14.448 14.448 14.448 7.98 0 14.448-6.469 14.448-14.448 0-7.98-6.468-14.448-14.448-14.448z" fill="url(#paint1_linear_1451_82)"/><defs><linearGradient id="paint0_linear_1451_82" x1=".389" y1="4.396" x2="54.77" y2="41.289" gradientUnits="userSpaceOnUse"><stop stop-color="#D0D0D0"/><stop offset="1" stop-color="#747474"/></linearGradient><linearGradient id="paint1_linear_1451_82" x1=".389" y1="4.396" x2="54.77" y2="41.289" gradientUnits="userSpaceOnUse"><stop stop-color="#D0D0D0"/><stop offset="1" stop-color="#747474"/></linearGradient></defs></svg>