<svg width="17" height="20" fill="none" xmlns="http://www.w3.org/2000/svg"><path d="M5.385 8.583a3.115 3.115 0 116.23 0 3.115 3.115 0 01-6.23 0z" fill="url(#paint0_linear_1451_183)"/><path fill-rule="evenodd" clip-rule="evenodd" d="M.616 7.508A7.703 7.703 0 018.293.438h.414a7.703 7.703 0 017.677 7.07 8.331 8.331 0 01-1.854 5.957l-4.593 5.618a1.856 1.856 0 01-2.874 0l-4.594-5.618A8.33 8.33 0 01.616 7.508zM8.5 4.03a4.552 4.552 0 100 9.104 4.552 4.552 0 000-9.104z" fill="url(#paint1_linear_1451_183)"/><defs><linearGradient id="paint0_linear_1451_183" x1=".588" y1="1.645" x2="17.722" y2="13.269" gradientUnits="userSpaceOnUse"><stop stop-color="#D0D0D0"/><stop offset="1" stop-color="#747474"/></linearGradient><linearGradient id="paint1_linear_1451_183" x1=".588" y1="1.645" x2="17.722" y2="13.269" gradientUnits="userSpaceOnUse"><stop stop-color="#D0D0D0"/><stop offset="1" stop-color="#747474"/></linearGradient></defs></svg>